<?xml version="1.0"?>
<svg xmlns:rdf="http://www.w3.org/1999/02/22-rdf-syntax-ns#" xmlns="http://www.w3.org/2000/svg" xmlns:cc="http://web.resource.org/cc/" xmlns:dc="http://purl.org/dc/elements/1.1/" xmlns:svg="http://www.w3.org/2000/svg" id="svg2209" viewBox="0 0 244.86 285.61" version="1.0">
  <g id="layer1" transform="translate(-163.75 -99.791)">
    <g id="g2392" transform="translate(140 137.14)">
      <path id="path2362" style="color:#000000" fill="#454545" d="m177.23 81.366c-1.3-0.011-1.5 1.795-0.46 2.367 0.94 0.86 2.83 1.637 3.63 0.189 0.56-1.454-1.33-2.263-2.46-2.505-0.23-0.043-0.47-0.067-0.71-0.051z"/>
      <path id="path2252" style="color:#000000" fill="#2c2c2c" d="m160.54 74.971c-3.89 0.869-2.2 6.265 1.09 6.852 14.66 6.228 27.04 17.171 35.38 30.647 4.07 5.35 6.42 11.74 10.02 17.3 0.87 1.16 2.97 0.91 1.41 2.46 1.48 5.29 2.59 10.78 3.28 16.36 0.25 9.07 3.78 7.22 2.37-0.76-0.93-13.6-1.51-27.37-3.8-40.78-1.6-4.33-5.79-6.64-9.64-8.463-1.64-2.727-5.34-2.582-7.32-5.045-3.8-0.672-6.04-4.032-9.38-5.781-7.57-4.497-14.93-9.942-23.26-12.813l-0.15 0.023z"/>
      <path id="path2258" style="color:#000000" fill="#2c2c2c" d="m163.24 36.422c-3.7 3.066-7 7.203-8.91 11.607 2.28 3.677 7.21 5.258 10.61 7.897 13.55 8.834 29.49 16.726 42.96 25.518 2.99-0.341-0.15-6.145 0.54-8.214-0.45-3.83 1.89-8.96-0.17-12.319 0.73-0.808-6.57-3.993-9.65-5.204-1.86-1.445-4.86-3.287-6.81-4.397-1.82-1.615-3.67-2.093-5.58-2.723-0.96-0.635-1.95-0.391-3.71-1.697-0.84-1.584-3.86-2.774-5.6-3.102-4.02-2.922-6.58-4.922-11.54-6.362-0.03-0.993-1.22-1.234-2.14-1.004z"/>
      <path id="path2260" style="color:#000000" fill="#2c2c2c" d="m105.4 11.558c-0.17 3.897 6.05 9.111 6.97 12.966 2.88 8.315 6.75 16.767 7.5 25.536-0.85 4.798-9.66 4.661-8.66 10.268 1.4 5.617 6.43 9.517 9.19 14.107 0.44 5.457-0.18 11.176 0.85 16.473 5.45-1.187 10.52-4.937 15.82-7.073 4.68-2.204 9.87-3.919 11.84-9.2 2.47-3.491 5.06-6.994 4.29-11.534 0.84-6.775-0.89-14.501 3.74-20.095-0.58-2.567-4.36-4.296-6.94-5.134-1.3-1.191-2.82-2.861-4.76-3.986-7.05-4.795-19.93-11.717-21.76-9.746-3.34-2.11-5.51-5.269-9.17-7.607-1.6-1.234-6.74-5.769-8.91-4.975z"/>
      <path id="path2262" style="color:#000000" fill="#454545" d="m101.94-31.436c-4.02 1.716-8.372 4.218-10.823 7.902 1.294 4.856 9.603 4.588 9.823 10.134 0.88 4.5388-1.564 10.066-6.743 10.179-2.979 0.9614-7.719-1.3934-10.089 0.5131-0.235 2.6854 4.649 2.9109 6.179 4.5708 22.113 11.813 42.863 25.754 64.983 37.55 4.17 2.14 6.89-3.541 10.37-4.923 9.38-5.805 19.29-10.774 28.47-16.908 2.23-0.114 3.72-3.07 0.94-3.884-11.42-5.8475-22.5-11.943-33.19-19.018-9.67-7.994-10.54-7.435-11.81-9.754 0.27-3.327-5.25-4.017-7.33-5.822-3.07-1.599-6.14-4.335-9.28-5.629-1.81 3-0.55 7.814-4.13 10-4.74 4.158-11.74 3.675-17.48 2.679-4.38-1.697-8.99-4.634-7.63-10.625-0.44-1.865 0.96-6.96-2.26-6.965zm57.39 33.974c9.7 3.9256 18.88 9.3724 26.83 16.071-7.8 4.386-15.31 9.758-24.02 12.054-11.07-4.566-21.53-11.214-31.36-18.058-1.85-1.401 2.65-2.399 3.39-3.396 5.92-3.4735 12.07-6.3929 18.2-9.5508 2.32 0.95979 4.64 1.9196 6.96 2.8794z"/>
      <path id="path2268" style="color:#000000" fill="#454545" d="m212.26 9.0332c-5.59 1.4028-10.8 4.6898-15.18 8.3708-5.34 0.977 3.84 4.062 5.6 5.807 10.83 6.436 21.88 13.614 32.9 19.661 4.72-1.086 8.01-5.468 12.81-6.718 0.51 0.936 5.37 0.214 5.2-2.813-2.85-4.093-8.43-5.6-12.65-8.058-4.94-2.625-9.93-5.411-14.62-8.303-0.46-2.688-4.12-2.418-5.76-4.241-2.56-1.504-5.15-3.8522-8.3-3.7058z"/>
      <path id="path2270" style="color:#000000" fill="#454545" d="m255.71 34.881c-3.81 1.417-8.4 3.333-10.31 7.166-0.81 6.679 2.91 13.879-1.36 20.044-4.4 5.487-12.11 6.477-17.7 10.469-5.17 3.334-11.59 5.448-15.51 10.335-1.35 5.359-1.03 11.269-0.16 16.674 2.69 2.091 2.4-2.484 3.3-3.906 9.57 6.037 12.64-4.202 18.55-6.808 3.13-3.989 8.45-5.423 12.63-8.156 1.86-0.375 4.24-3.059 5.99-2.425 2.77 2.246 2.3-3.298 4.82-2.812 2.8-1.163 6.83-2.017 8.21-4.911-1.74-11.842-3.74-23.899-7.23-35.312-0.34-0.27-0.78-0.457-1.23-0.358z"/>
      <path id="path2272" style="color:#000000" fill="#454545" d="m263.17 73.698c-5.32 1.757-10.82 4.267-14.98 8.036-0.83 3.274 3.14-2.309-0.28-0.526-12.28 6.057-23.34 11.695-35.88 17.066-1.71-0.491-3.14 4.336-1.11 6.426 2.24 2.12-0.06 5.41 1 8.13 0.31 9.83 2.71 19.46 3.13 29.24-0.65 15.58-2.16 31.16-4.8 46.45 1.26 3.02 4.46-0.43 5.87-1.67 5.86-3.95 12.39-6.98 18.95-9.22 3.25-0.87 8.16-3.14 10.71-4.13 0.25-2.47 1.98-2.48 0.63-5.63-1.16-2.44 2.83 0.5 4.13 0.27 1.96 0.87 3.34-0.5 4.04-1.94 7.03-1.45 8.14-9.76 9.51-15.58 3.9-23.82 3.34-48.25 1.36-72.256-0.53-1.353 0.01-4.805-2.28-4.666z"/>
      <path id="path2274" style="color:#000000" fill="#454545" d="m37.88 68.408c-1.161 7.649-0.124 28.979-0.235 36.782 0.67 7.14 1.416 2.62-0.301 9.47 0.116 4.43 1.859 8.69 1.166 13.23 0.168 2.57-0.494 5.39 0.059 7.92 0.087 0.4-1.447 1.55-1.292 1.93 1.046 0.28 3.658-0.83 3.965-1.56 0.585-1.37-0.134-3.95 0.276-5.12 0.152-4.15 0.385 0.89 0.737 2.44-0.995 5.99 5.028-1.3 7.193-1.77 9.919-5.63 20.511-10.43 29.682-17.23 1.115-1.1 0.888-2.48 2.478-1.36 4.287-0.91 8.434-3.37 11.741-6-0.573-3.63 2.994 8.52 4.888 7.79 4.673-2.36 6.823-13.96 11.203-16.7 3.14-4.904 1.51-11.402 1.72-16.92-0.67-3.738-6.14-0.94-6.61 1.719-0.46 1.402-0.38 3.424-0.91 0.982-1.66-3.336-6.576-1.425-8.952 0.111-0.757 2.106-1.655 0.93-3.348 0.514-14.416-1.039-29.783-1.251-42.299-9.487-3.049-1.315-7.769-7.052-11.161-6.741z"/>
      <path id="path2276" style="color:#000000" fill="#454545" d="m47.902 52.85c-2.592 0.437-0.103 3.598-2.165 3.996-2.404 0.735-3.428 2.72-4.955 4.687-3.521 0.53-1.485 5.425 0.469 6.831 12.01 11.293 29.483 16.194 45.847 14.604 10.692-0.368 21.702-2.823 30.652-8.823 1.68-1.878 0.07-4.502-0.92-4.494 0.37-2.983-4.87-1.503-5.51-4.122-1.41-1.604-1.69-9.086-4.47-8.222-0.71 1.597 0.12 5.831-0.69 3.378-2.11-3.149-6.711 0.112-9.701-0.229-15.135 3.478-30.837 0.025-44.673-6.467-1.27-0.361-2.531-1.274-3.884-1.139z"/>
      <path id="path2278" style="color:#000000" fill="#454545" d="m72.389-14.293c-11.965 6.2185-22.278 15.956-29.688 27.232-4.43 9.207-6.975 21.108-1.718 30.447 10.498 13.975 29.084 18.968 45.96 17.433 7.793-0.629 16.597-0.824 23.187-5.357 1.23-0.736 1.2-4.311 2.48-1.987 2.58 1.781 5.71-0.932 4.58-3.839 0.1-1.973-1.54-3.748 0.94-2.366 2.06-1.856-0.68-5.415-0.87-7.8-1.09-1.712-0.96-6.901-3.93-5.861-1.5-1.394-2.45-5.666-3.84-8.214-0.3-1.103-3.37-6.473-1.28-3.393 1.46 2.023 3.32-0.741 1.81-2.21-4.76-11.44-17.452-15.462-26.821-22.135-3.759-2.8783-9.343-5.639-9.359-11.035-0.187-0.584-0.799-1.119-1.451-0.915zm-7.5 16.139c6.405-0.6926 12.337 7.8508 7.835 13.192-3.656 4.779-10.997 9.315-16.875 5.803-3.624-3.312-6.048-9.755-1.63-13.393 2.848-3.0004 6.255-5.8573 10.67-5.6023zm38.681 22.009c2.2 5.866 3.91 11.981 5.45 18.08-1.7-6.041-3.37-12.268-5.45-18.08zm-4.686 5.692c1.466 3.819 2.076 7.728 2.746 11.763-0.83-4.392-1.932-8.678-3.147-12.969l0.226 0.678 0.175 0.528zm-8.459 8.102c0.7 4.06 1.363 8.127 1.919 12.21-0.69-4.162-1.39-8.323-1.986-12.5l0.067 0.29zm11.335 4.353c-0.47 0.029 0.12-1.791 0 0z"/>
      <path id="path2280" style="color:#000000" fill="#838383" d="m153.95 80.685c-9.75 2.823-18.03 9.231-27.07 13.754-23.32 12.981-46.591 26.051-70.027 38.811-1.258 2.98 4.689 2.96 6.514 4.61 20.76 8.99 37.133 27 45.053 48.2 5.6 14.03 7.8 29.75 3.77 44.49 1.01 2.61 4.25-0.03 6.2 0.11 7.91-5.56 16.44-10.45 24.65-15.64 1.58-1.05 5.78-3.87 2.99-5.7-2.18 0-4.06 1.39-6.03 2.19 2.31-1.13 5.22-3.61 6.74-4.64 0.68 1.74-1.25 8.97 1.88 8.01 2.7-0.73 7.86-4.25 8.93-5.47 16.64-6.72 14.11-6.51 20.58-10.21 1.29-0.5 1.29-4.03 2.27-2.44 2.21 0.41 4.18-1.77 6.23-2.21 3.77-3.24 9.89-4.03 13.55-7.44 5.54-3.45 9.55-6.82 10.33-14.44 1.38-9.76 1.5-19.9 0.23-29.69-2.27-4.99-0.5-11.78-5.67-14.97-1.55-0.41 0.41-1.23-0.65-2.62-1.65-3.57-4.36-6.54-6.09-10.06-6.64-9-12.5-19.079-22.24-25.273-5.81-4.35-12.85-6.595-19.39-9.193-0.91-0.14-1.83-0.247-2.75-0.179zm41.12 79.285c-1.45 0.78-8.39 4.86-4.6 2.32 1.8-2.22 4.4-2.68 6.92-3.64-0.77 0.44-1.55 0.88-2.32 1.32zm-20.96 11.27c-2.52 1.68-1.93 0.64 0 0zm26.4 7.3c-1.18 1.11-4.77 2.66-4.97 2.55 0.73-0.32 6.62-3.66 4.97-2.55zm-18.57 9.78c-6.58 3.66-13.12 7.39-19.73 11 6.64-3.68 12.6-8.47 19.75-11.1 2.22-1.1 2.88-1.49-0.02 0.1z"/>
      <path id="path2282" style="color:#000000" fill="#2c2c2c" d="m49.152 136.18c-11.34-0.14-20.332 9.32-22.678 19.86-1.922 8.8-1.767 18.17-0.447 27.06 0.189 2.61 3.722 2.96 3.817 0.02 1.827-8.78-0.241-18.3 3.081-26.7 3.504-7.87 11.483-14.38 20.512-12.84 15.477-0.06 28.213 10.86 37.64 22.03 10.353 12.88 16.893 29.38 17.343 45.99 0.08 11.22-5.32 24.51-17.169 27.54-14.522 3.58-28.307-5.51-38.125-15.29-5.094-4.37-8.292-10.25-12.947-15-3.131-1.06-2.522 3.8-1.116 5.21 6.88 9.97 15.258 19.35 25.643 25.68 8.842 4.35 18.915 8.95 29 6.93 9.564-2.63 16.604-11.14 18.284-20.81 4.67-23.61-4.87-47.99-19.869-66.02-10.594-12.57-25.872-23.7-42.969-23.66z"/>
      <path id="path2284" style="color:#000000" fill="#a3a3a3" d="m151.65 0.35013c-7.04 3.2589-14.22 6.9754-21.09 10.826-0.95 2.938 4.28 3.547 5.9 5.321 8.65 4.602 16.75 11.129 26.29 13.652 6.69-1.661 12.67-5.918 18.88-8.928 2.02-0.568 5.03-2.965 2.05-4.509-9.92-6.056-20.15-11.943-30.96-16.295-0.35-0.04304-0.71-0.13611-1.07-0.06687z"/>
      <path id="path2286" style="color:#000000" fill="#a3a3a3" d="m194.8 19.279c-9.24 3.645-18.35 8.077-26.63 13.549-2.63 0.983-0.74 5.55 1.41 3.169 3.91 1.327 7.9 3.735 10.44 7.076-0.22 1.856 3.07 2.685 3.8 1.518 10.79 3.508 21.34 1.616 32.54 2.679 6 0.179 13.42 1.004 17.46-4.465-2.37-2.4-7.22-0.74-10.56-1.586-44.73-3.738-27.68-0.129 6.74-0.445-0.15-3.135-5.58-4.085-7.74-6.094-8.97-5.167-17.42-11.542-27.01-15.424h-0.27l-0.18 0.023z"/>
      <path id="path2288" style="color:#000000" fill="#a3a3a3" d="m242.77 44.346c-2.88 1.085-6.07 1.768-8.84 2.946-7.06 5.919-12.77-4.283-24 13.839-1.19 6.077-0.55 12.845 0.29 19.108 2.15 2.207 5.03-2.336 7.5-2.969 8.57-5.45 18.65-8.647 26.28-15.402 3.01-4.521 2.14-10.833 0.66-15.706-0.32-0.787-0.69-2.326-1.89-1.816z"/>
      <path id="path2290" style="color:#000000" fill="#a3a3a3" d="m115.98-35.744c-5.15-0.498-12.35 3.097-11.38 9.041 3.46 6.195 12.09 8.325 18.66 6.361 4.08-1.072 10.38-3.904 8.41-9.196-2.66-5.519-10.31-6.219-15.69-6.206z"/>
      <path id="path2292" style="color:#000000" fill="#a3a3a3" d="m88.572-20.029c-4.096 0.349-9.953 4.769-6.786 9.151 4.931 3.7144 13.08 3.8527 17.679-0.424 2.555-3.116-0.786-6.959-4.13-7.455-2.165-0.757-4.437-1.4-6.763-1.272z"/>
      <path id="path2294" style="color:#000000" fill="#a3a3a3" d="m64.175 2.1582c-6.833 0.0035-15.08 7.2513-10.826 14.264 4.575 4.383 11.834 0.771 15.178-3.483 3.07-2.581 4.909-8.4599 0.224-10.446-1.454-0.5275-3.058-0.3867-4.576-0.3348z"/>
      <path id="path2296" style="color:#000000" fill="#454545" d="m80.469-19.293c-3.479 1.1-6.941 5.393-5.803 9.152 0.451 0.9934 4.65 5.4999 7.806 7.2158 3.7 2.0116 6.067 2.5126 2.194-0.5416 0.023-1.2141-4.643-2.7531-5.285-4.6599-1.262-3.7433 0.453-7.7753 2.294-9.5813 0.296-0.769-0.318-1.769-1.206-1.585z"/>
      <path id="path2298" style="color:#000000" fill="#a3a3a3" d="m250.56 20.305c-2.61 0.793-6.65 1.918-7.32 4.822 2.28 4.242 10.37 2.012 10.71-2.5-0.47-1.412-1.86-2.531-3.39-2.322z"/>
      <path id="path2300" style="color:#000000" fill="#a3a3a3" d="m253.84 25.685c-2.72-0.549-5.64 3.748-2.17 4.777 2.65 0.897 6.56-2.683 3.46-4.643-0.4-0.155-0.86-0.197-1.29-0.134z"/>
      <path id="path2302" style="color:#000000" fill="#a3a3a3" d="m247.39 14.524c-3.68 1.499-7.6 3.628-10.07 6.786-0.16 3.352 4.88 3.035 6.92 1.719 3.25-0.933 8.38-4.205 4.85-7.88-0.43-0.443-1.08-0.713-1.7-0.625z"/>
      <path id="path2304" style="color:#000000" fill="#a3a3a3" d="m243.57 10.886c-4.36 1.063-9.05 3.13-11.9 6.652-0.53 3.814 4.65 3.322 6.7 1.785 2.69-1.765 10.09-2.58 7.66-7.009-0.35-1.053-1.41-1.538-2.46-1.428z"/>
      <path id="path2306" style="color:#000000" fill="#a3a3a3" d="m238.84 7.7832c-4.03 0.0581-6.59 3.4628-10.29 4.4868-3.26 1.73-0.02 6.497 2.88 4.152 2.87-3.15 7.8-3.557 10.56-6.6745 0.31-1.7736-1.89-2.0984-3.15-1.9643z"/>
      <path id="path2308" style="color:#000000" fill="#a3a3a3" d="m230.29 7.2921c-2.52 0.7321-6.25 1.4754-7.08 4.3299 1.29 3.626 5.5 0.091 7.46-1.049 1.64-0.8425 2-3.4699-0.38-3.2809z"/>
      <path id="path2312" style="color:#000000" fill="#a3a3a3" d="m223.55 1.7533c-2.97 0.4566-5.92 1.0868-8.9 1.4188-1.37 0.0591-2.2 1.5921-1.95 2.8362 0.24 1.6281 1.95 3.0711 3.63 2.5056 2.21-0.7435 4.04-2.3007 5.99-3.542 0.73-0.5501 1.58-0.9788 2.19-1.6645 0.44-0.717-0.12-1.6351-0.96-1.5541z"/>
      <path id="path2314" style="color:#000000" fill="#a3a3a3" d="m229.75 3.7232c-1.94 0.281-3.71 1.2043-5.48 1.9974-1.87 0.9295-3.78 1.8545-5.42 3.156-0.74 0.6284-0.31 1.9234 0.68 1.9504 1.55-0.095 3.02-0.704 4.47-1.2277 2.21-0.9125 4.48-1.8669 6.32-3.4291 0.6-0.4857 1.07-1.4748 0.41-2.1094-0.25-0.2567-0.63-0.3634-0.98-0.3376z"/>
      <path id="path2316" style="color:#000000" fill="#a3a3a3" d="m234.54 4.8309c-1.14-0.0026-2.67 0.4281-2.86 1.7438-0.12 1.2845 1.27 2.0316 2.38 2.1038 1.21 0.0706 2.77-0.1225 3.38-1.3337 0.47-1.1211-0.62-2.1826-1.67-2.38-0.4-0.0985-0.81-0.1425-1.23-0.1339z"/>
      <path id="path2318" style="color:#000000" fill="#454545" d="m147.68 80.245c-2.69 0.52-5.18 2.02-7.94 1.95-1 0.303-0.48 1.571-1.41 1.957-2.79 2.148-5.96 3.704-9.15 5.138 0.15-1.284-1.73-1.562-2.38-0.498-0.61 0.489-0.69 1.321-0.76 1.981-4.05 3.346-8.89 5.515-13.36 8.252-6.12 3.385-12.12 7.025-18.403 10.105-0.515-0.85-2.142-1.41-2.387 0.06-0.518 1.73-2.594 2.44-4.005 3.37-1.216 0.63-2.443 1.22-3.701 1.76-0.223-1.6-2.157-0.99-3.015-0.31-0.958 0.59-2.849 1.32-2.115 2.74 0.887 0.91-0.129 0.36-0.469-0.28-1.402-0.52-2.733 0.84-3.982 1.34-0.984 0.4-2.38 1.74-1.065 2.62 0.229 0.35-2.037 1.14-2.705 1.65-7.435 1.67-13.482 5.47-18.722 10.24-0.099-1.37-1.8-1.24-2.604-0.49-1.037 0.64-3.126 1.56-2.21 3.09 1.28 1.06 3.188 0.66 4.743 0.77 2.232 0.06 4.249-0.99 5.809-2.51 7.664-4.46 15.597-8.46 23.32-12.83 11.832-6.47 23.521-13.17 35.321-19.69 10.28-6.086 20.91-11.552 31.1-17.787 1.05-0.397 1.96-2.14 0.45-2.593-0.11-0.062-0.24-0.058-0.36-0.035z"/>
      <path id="path2322" style="color:#000000" fill="#454545" d="m153.99 49.981c-0.71 0.882-0.23 2.129-0.37 3.176 0 4.737-0.13 9.488-0.43 14.206-0.08 1.675 1.19 3.016 2.64 3.654 0.75 0.442 1.98 0.959 2.55-0.028 0.46-1.181-1.02-1.806-1.15-2.9-0.8-3.326-0.63-6.852-0.41-10.259 0.15-0.941 0.15-2.138 0.84-2.842 3.03 1.88 5.8 4.194 8.93 5.931 7.16 4.092 14.2 8.41 21.38 12.438 4.18 2.102 8.2 4.492 12.23 6.874 1.46 0.914 3.07 1.614 4.53 2.509 0.42 2.349 0.2 4.789 0.25 7.174 0.07 2.25-0.19 4.545 0.24 6.767 0.31 1.233 1.74 2.562 3.02 1.76 1.09-0.892 0.76-2.476 0.86-3.713-0.01-4.146-0.39-8.293-1.03-12.387-0.3-1.696-2.06-2.483-3.33-3.367-2.82-1.773-5.98-3.004-8.53-5.148-0.96-0.649-2.15-0.882-3.27-1.026-3.1-2.517-6.64-4.406-10.02-6.496-5.57-3.276-11.15-6.534-16.64-9.911-2.28-1.339-4.76-2.359-6.8-4.072-1.48-0.951-3.03-1.834-4.65-2.498-0.31-0.142-0.55 0.056-0.84 0.158z"/>
      <path id="path2324" style="color:#000000" fill="#a3a3a3" d="m194.44 46.235c-1.08 0.139-2.79-0.267-3.29 1.011-0.27 1.372 1.48 1.669 2.32 2.326 1.22 0.821 2.3 2.112 3.94 2.114 4.26 0.572 8.59 0.866 12.89 0.727 3.87-0.165 4.33-1.554 0.22-1.875 1.98 0.171 4.03-0.014 5.97 0.418-0.14 1.131-0.71 2.92 0.76 3.432 1.73 0.289 2.68-1.759 2.85-3.181 0.18-1.308 0.3-3.399-1.42-3.694-4.65-0.723-9.41-0.706-14.11-1.017-3.38-0.14-6.75-0.292-10.13-0.261z"/>
      <path id="path2326" style="color:#000000" fill="#a3a3a3" d="m214.64 53.423c-1.89 0.587-3.44 2.127-5.43 2.383-1.2-1.259-3.15-0.549-4.67-0.826-1.21-0.038-2.37-1.446-3.54-0.586-0.91 1.177 0.56 2.263 1.51 2.757 1.94 1 3.91 2.346 6.16 2.427 2.54-0.498 4.49-2.439 6.46-3.99 1.67-1.316 2.61-3.938-0.49-2.165z"/>
      <path id="path2328" style="color:#000000" fill="#a3a3a3" d="m221.59 46.955c-1.14-0.089-2.18 1.219-1.33 2.076 0.91 0.787 2.59 0.869 3.51 0.045 0.95-1.457-1.02-2.292-2.18-2.121z"/>
      <path id="path2330" style="color:#000000" fill="#a3a3a3" d="m224.68 51.347c-1.13 0.238-2.62 0.718-2.95 1.97-0.01 1.564 2.15 1.573 3.15 0.937 0.88-0.522 1.86-1.881 0.74-2.689-0.27-0.2-0.62-0.242-0.94-0.218z"/>
      <path id="path2332" style="color:#000000" fill="#a3a3a3" d="m197.17 51.319c-1.34 0.16-1.31 2.022-0.26 2.595 0.94 0.769 2.98 1.224 3.53-0.212 0.15-1.421-1.58-1.906-2.63-2.327-0.21-0.056-0.42-0.076-0.64-0.056z"/>
      <path id="path2334" style="color:#000000" fill="#a3a3a3" d="m174.06 38.534c-1.29 0.705-0.21 2.068 0.66 2.612 0.94 0.555 1.95 1.8 3.15 1.364 1.18-0.522 0.56-2.159-0.43-2.58-1-0.669-2.11-1.506-3.38-1.396z"/>
      <path id="path2338" style="color:#000000" fill="#a3a3a3" d="m169.26 35.048c-0.37 0.132-0.58 0.497-0.92 0.673-0.5 0.309-0.6 1.072-0.19 1.495 0.41 0.369 0.93 0.581 1.4 0.868 0.98 0.539 1.95 1.112 2.95 1.617 0.52 0.231 1.19-0.071 1.35-0.624 0.15-0.448-0.08-0.943-0.46-1.199-1.07-0.884-2.15-1.77-3.2-2.675-0.26-0.205-0.61-0.248-0.93-0.155z"/>
      <path id="path2340" style="color:#000000" fill="#a3a3a3" d="m166.63 33.581c-0.42 0.137-0.8 0.457-0.96 0.874-0.14 0.41 0.03 0.839 0.31 1.146 0.27 0.419 0.84 0.657 1.31 0.424 0.44-0.177 0.65-0.678 0.61-1.13 0.01-0.428-0.07-0.925-0.47-1.167-0.23-0.164-0.53-0.205-0.8-0.147z"/>
      <path id="path2342" style="color:#000000" fill="#a3a3a3" d="m242.37 42.082c-0.46 0.02-0.89 0.19-1.31 0.358-0.84 0.356-1.64 0.814-2.35 1.388-0.33 0.282-0.68 0.608-0.8 1.046-0.12 0.429 0.05 0.926 0.42 1.18 0.31 0.229 0.72 0.26 1.09 0.18 0.52-0.109 1.01-0.311 1.49-0.524 0.63-0.308 1.24-0.693 1.79-1.129 0.36-0.289 0.72-0.623 0.85-1.076 0.11-0.362 0.03-0.767-0.23-1.05-0.24-0.264-0.6-0.383-0.95-0.373z"/>
      <path id="path2344" style="color:#000000" fill="#a3a3a3" d="m255.69 29.908c-0.76 0.007-1.66 0.365-1.85 1.176-0.16 0.696 0.41 1.344 1.07 1.462 0.66 0.184 1.36 0.092 2.03 0.041 0.61-0.041 1.25-0.433 1.29-1.093 0.07-0.708-0.59-1.185-1.2-1.374-0.43-0.148-0.89-0.223-1.34-0.212z"/>
      <path id="path2346" style="color:#000000" fill="#454545" d="m113.59 77.818c-0.89 0.119-1.16 1.106-1.33 1.841-0.61 2.769-0.71 5.617-0.83 8.444-0.05 2.276-0.14 4.58 0.26 6.831 0.11 0.719 0.61 1.543 1.43 1.484 0.91-0.077 1.23-1.072 1.41-1.818 0.65-2.891 0.77-5.865 0.87-8.817 0.02-2.18 0.07-4.382-0.35-6.532-0.13-0.723-0.61-1.529-1.46-1.433z"/>
      <path id="path2348" style="color:#000000" fill="#454545" d="m115.92 88.334c-0.81 0.127-1.07 1.032-1.03 1.742-0.01 0.978-0.09 1.98 0.1 2.944 0.17 0.728 1.16 1.186 1.75 0.632 0.56-0.485 0.55-1.323 0.67-2.005 0.05-0.947 0.07-1.985-0.41-2.833-0.24-0.344-0.66-0.544-1.08-0.48z"/>
      <path id="path2350" style="color:#000000" fill="#454545" d="m119.08 74.93c-0.85 0.146-1.02 1.098-1.15 1.8-0.73 4.498-0.77 9.074-0.71 13.621 0.06 0.854-0.03 1.867 0.58 2.545 0.51 0.529 1.48 0.315 1.78-0.357 0.6-1.328 0.65-2.82 0.82-4.247 0.19-2.434 0.11-4.881 0.12-7.321-0.05-1.772 0.03-3.566-0.28-5.317-0.17-0.504-0.65-0.791-1.16-0.724z"/>
      <path id="path2352" style="color:#000000" fill="#454545" d="m124.75 89.885c-1.14 0.054-2.02 0.923-2.71 1.752-0.41 0.481-0.46 1.312 0.14 1.659 0.79 0.421 1.66-0.068 2.41-0.351 0.81-0.342 1.72-1.059 1.56-2.04-0.1-0.656-0.76-1.078-1.4-1.02z"/>
      <path id="path2354" style="color:#000000" fill="#454545" d="m109.82 21.352c-0.39 0.478-1.22 0.368-1.42 0.986-0.36 1.037 0.57 2.049 0.88 3.033 1.19 2.762 2.22 5.604 3.2 8.431 0.45 0.858 1.69 0.802 2.47 0.533 1.06-0.546 0.37-1.788 0.1-2.614-1.22-3.354-2.41-6.736-3.86-9.994-0.27-0.507-0.87-0.602-1.37-0.375z"/>
      <path id="path2356" style="color:#000000" fill="#454545" d="m118.29 45.738c-0.37 0.499-0.97 0.471-1.38 0.912-0.53 0.95 0.35 1.933 0.58 2.851 0.36 0.885 0.84 2.356 2.08 2.021 1.14-0.506 0.7-1.935 0.56-2.888-0.27-0.91-0.22-2.038-0.88-2.746-0.29-0.245-0.61-0.206-0.96-0.15z"/>
      <path id="path2358" style="color:#000000" fill="#2c2c2c" d="m152.98 69.464c-1.63 0.263-2.28 2.081-3.12 3.282-0.83 1.671-2.03 3.523-1.57 5.457 1.01 2.237 3.85 2.224 5.94 2.145 2.28 0.169 3.84-1.877 4.52-3.813 0.69-1.534 1.04-3.755-0.62-4.816-1.53-1.007-3.29-2.164-5.15-2.255z"/>
      <path id="path2360" style="color:#000000" fill="#454545" d="m164.3 72.84c-1.44 0.086-1.6 1.983-0.64 2.779 0.81 1.013 2.92 1.619 3.46 0.033 0.34-1.509-1.45-2.867-2.82-2.812z"/>
      <path id="path2364" style="color:#000000" fill="#454545" d="m181.13 83.331c-1.21 0.022-1.35 1.665-0.48 2.282 0.83 0.906 2.75 1.651 3.56 0.441 0.75-1.398-1.06-2.314-2.17-2.623-0.29-0.095-0.6-0.122-0.91-0.1z"/>
      <path id="path2366" style="color:#000000" fill="#454545" d="m186.99 86.902c-1.18 0.035-1.35 1.673-0.39 2.204 0.85 0.622 1.82 1.516 2.92 1.438 1.47-0.382 0.64-2.229-0.18-2.866-0.65-0.554-1.5-0.852-2.35-0.776z"/>
      <path id="path2368" style="color:#000000" fill="#454545" d="m194.75 91.612c-1 0.911 0.19 1.981 0.96 2.517 0.98 0.581 2.05 1.985 3.29 1.35 1.11-0.873 0.13-2.429-0.92-2.835-1.03-0.438-2.16-1.648-3.33-1.032z"/>
      <path id="path2370" style="color:#000000" fill="#454545" d="m201.36 94.938c-1.21-0.118-1.76 1.544-0.77 2.199 0.91 0.555 1.9 1.594 3.02 1.322 0.98-0.326 0.83-1.757 0.02-2.399-0.56-0.659-1.37-1.219-2.27-1.122z"/>
      <path id="path2372" style="color:#000000" fill="#454545" d="m206.3 97.873c-1.57 0.115-1.56 2.197-0.48 2.947 0.83 0.85 2.75 1.31 3.24-0.12 0.45-1.529-1.37-2.916-2.76-2.827z"/>
      <path id="path2374" style="color:#000000" fill="#2c2c2c" d="m29.675 185.35c-1.428 0.04-2.326 1.54-2.042 2.88 0.533 4.71 2.425 9.14 4.381 13.41 1.335 2.45 2.425 5.37 4.916 6.89 1.218 0.55 3.034-0.33 2.645-1.83-0.801-2.96-2.449-5.62-3.482-8.49-1.599-3.78-2.626-7.81-4.358-11.54-0.389-0.76-1.154-1.42-2.06-1.32z"/>
      <path id="path2378" style="color:#000000" fill="#2c2c2c" d="m209.89 176.18c-1.12 1.26-1.49 3.03-2.54 4.38-1.91 2.98-4.76 5.25-6.87 8.08-0.95 1.53 0.2 3.24 1.45 4.16 1.37 1.38 3.69 0.89 4.81-0.56 2.57-3.06 3.5-7.11 4.42-10.91 0.26-1.6 0.44-3.34-0.06-4.9-0.39-0.32-0.72-0.38-1.21-0.25z"/>
      <path id="path2380" style="color:#000000" fill="#454545" d="m89.106-24.075c-1.374 0.245-2.555 1.079-3.762 1.738-1.032 0.699-2.31 1.275-2.879 2.447-0.345 0.881 0.507 1.727 1.384 1.591 1.756-0.163 3.271-1.243 4.626-2.294 0.699-0.66 1.672-1.252 1.878-2.254 0.081-0.706-0.552-1.302-1.247-1.228z"/>
      <path id="path2382" style="color:#000000" fill="#838383" d="m118.06 229.77c-1.96 0.28-3.63 1.61-5.37 2.51-0.84 0.66-2.3 0.99-2.45 2.2 0.12 1.34 1.65 1.09 2.48 0.63 2.31-1.06 4.84-2.01 6.63-3.87 0.36-0.89-0.4-1.63-1.29-1.47z"/>
      <path id="path2384" style="color:#000000" fill="#838383" d="m124.13 226.2c-1.53 0.42-3.05 1.26-4.07 2.48-0.65 1.11 0.81 2.06 1.74 1.42 1.31-0.62 2.98-1.19 3.59-2.62 0.16-0.73-0.53-1.4-1.26-1.28z"/>
      <path id="path2386" style="color:#000000" fill="#838383" d="m144.7 214.62c-2.81 0.88-5.3 2.6-7.91 3.95-3.79 2.25-7.73 4.33-11.22 7.05-1.05 0.82 0.1 2.5 1.25 1.83 4.85-2.34 9.27-5.49 14.05-7.95 1.67-1 3.57-1.8 4.91-3.25 0.52-0.75-0.21-1.78-1.08-1.63z"/>
      <path id="path2388" style="color:#000000" fill="#838383" d="m51.334 143.4c-4.804-0.25-9.553 1.71-12.895 5.16-4.925 4.72-7.194 11.45-7.82 18.1-0.588 5.29-0.899 10.74 0.118 16 0.114 1.13 1.46 2.6 2.462 1.34 0.752-2.84 0.328-5.91 0.519-8.84-0.007-5.65 0.403-11.44 3.206-16.47 2.822-6.08 8.739-10.65 15.444-11.27 9.706-1.07 18.976 4.08 26.162 10.13 9.064 7.56 16.37 17.23 20.984 28.1 2.516 5.52 4.486 11.45 4.366 17.58-0.02 5.56 0.33 11.22-0.3 16.72-1.25 4.58-4.211 8.74-7.862 11.79-3.84 3.23-8.955 4.38-13.858 3.8-6.892-0.68-13.371-3.71-19.027-7.61-7.326-5.39-13.049-12.5-19.169-19.14-1.164-0.9-2.272 0.87-1.358 1.8 4.733 7.13 10.511 13.55 16.933 19.2 4.995 3.82 10.753 6.63 16.599 8.91 3.419 1 7.072 0.75 10.599 0.81 3.524-0.05 7.224-0.38 10.147-2.59 6.226-3.93 10.026-10.85 11.016-18.04 1.35-8.68 0.38-17.61-2.4-25.92-3.42-10.57-8.549-20.71-15.669-29.27-5.538-5.92-11.631-11.39-18.351-15.91-1.862-1.07-4.014-1.45-5.927-2.45-4.389-1.88-9.218-2-13.919-1.93z"/>
      <path id="path2390" style="color:#000000" fill="#838383" d="m32.781 185.02c-1.162 0.54-0.46 2.49-0.198 3.56 1.736 5.89 4.145 11.58 6.898 17.04 0.369 1.16 2.31 1.47 2.446 0.03-0.375-3.22-2.386-5.97-3.311-9.04-1.553-3.73-2.417-7.87-4.509-11.37-0.357-0.29-0.869-0.58-1.326-0.22z"/>
      <path id="path2187" d="m189.84 73.36c-1.26-0.493 1.22 0.303 4.24 2.141 3.02 1.839 9.66 5.822 11.04 6.257 0.73 0.226 1.03 2.219 0.81 6.75-0.34 7.248 0.01 9.25 1.65 9.25 0.68 0 0.83-2.526 0.45-7.25-0.33-3.988-0.76-7.794-0.96-8.46-0.2-0.665-2.75-2.411-5.67-3.881-2.91-1.469-5.08-2.795-5.49-3.41-0.4-0.616-3.58-1.317-3.31-0.9 0.28 0.418-0.34-0.443-0.96-0.908-1.8-1.361-5.97-3.986-10.79-6.762-6.46-3.723-13.01-7.642-14.55-8.708-1.55-1.067-5.62-2.806-6.15-3.391-0.54-0.584-1.48-1.278-2.55-1.83l-3-1.552-0.07 7.276c-0.04 4.002-0.23 8.063-0.41 9.026-0.19 0.962 0.41 2.186 1.32 2.719 2.28 1.329 2.8 1.264 1.36-0.169-1.4-1.402-1.6-12.619-0.26-14.736 0.76-1.19 1.18-1.212 2.49-0.127 0.31 0.26 0.58 0.447 0.81 0.561 0.22 0.113 2.88 2.001 3.8 2.715s2.51 1.665 4.96 3.018c4.53 2.494 17.04 10.091 19.94 11.631 1.21 0.641 2.55 1.233 1.3 0.74zm71.66-1.172l1.87-0.952c0.15-0.099-0.2-3.488-0.77-7.531-0.58-4.044-1.99-10.973-3.14-15.4-1.15-4.426-2.31-9.25-2.58-10.72l-0.48-2.673-4.65 2.557c-7.25 3.987-7.04 3.588-5.44 10.514 1.64 7.094 0.45 13.851-2.84 16.157s-4.96 3.529-6.29 3.821-2.51 0.802-3.7 1.526c-1.86 1.124-6.21 3.557-9.68 5.407-13.98 7.459-13.2 6.474-13.2 16.486 0 4.743 0.43 8.378 0.97 8.378s2.68-0.944 4.75-2.097c10.1-5.6 14.28-8.089 14.28-8.497 0-0.552-6.2 2.588-12.8 6.478l-4.95 2.917v-2.275c0-1.735 0.45-2.157 1.89-1.781 1.05 0.275 4.97-1.132 8.88-3.183 3.85-2.021 7.51-3.355 8.14-2.964 0.69 0.425 0.88 0.272 0.48-0.382-0.37-0.601 0.03-1.489 0.89-1.972 1.58-0.838 3.38-1.676 4.34-2.179 1.68-0.572 4.33-2.118 9.63-5.103 3.6-2.025 5.45-2.684 4.61-1.647-1.21 1.514-1.18 1.652 0.25 1.101 0.91-0.347 1.64-1.305 1.64-2.13 0-0.852 0.59-1.275 1.36-0.979 0.75 0.286 2.52-0.244 3.95-1.178l2.59-1.699zm-32.41-31.43c2.97 0-15.28-10.081-16.27-10.813-0.99-0.733-1.84-1.368-2.53-1.904-0.69-0.537-7.04-4.283-7.63-4.283-0.58 0-1.06-0.45-1.06-1s-2-0.587-3.22-1.443c-1.22-0.857-3.03-1.557-4.02-1.557 1.89-0.421-19.77 8.461-27.76 14.985 0 0.321 1.47 1.393 3.25 2.383l3.25 1.799-2.5-2.062c-3.97-3.275-0.96-2.436 5.29 1.477 3.15 1.97 5.5 3.964 5.21 4.431s0 1.174 0.64 1.572c0.73 0.452 0.91 0.29 0.46-0.431-0.94-1.518 0.31-1.452 3.44 0.182 1.6 0.835 6.95 1.413 14.46 1.563 6.55 0.131 12.39 0.471 12.96 0.756 0.58 0.285 4.54-0.196 7.2 0.197 5.2 0.154 7.29 0.514 9.74-1.623 1.87-0.951 3.19-2.067 2.94-2.479-0.49-0.811-3.67-0.921-5.68-0.525-0.96 0.19-4.7 0.254-7.13-0.068-4.57-0.602-13.04-1.151-27.03-1.791-6.6-0.302-12.4-0.937-12.9-1.411-0.5-0.481 3.86-0.591 9.91-0.248 3.88 0.219 6.58 0.296 8.2 0.164 3.34-0.271 6.07-0.032 7.87 0.511 1.92 0.58 4.04 0.618 8.17 0.618 4.54 0 11.77 1 14.74 1zm-15.16-11.608c0.83 0.684 17.93 11.279 19.95 11.953 3.6 1.475 0.95 2.13 2.73 0.598 1.06-0.911 3.29-2.517 8.49-5.016 3.78-2.104 5.48-2.689 4.59-1.58-1.33 1.643-1.24 1.68 1.27 0.536 1.48-0.675 2.54-1.712 2.34-2.304-0.36-1.068-13.91-8.702-14.46-8.147-3.12-1.136-7.77-5.686-11.98-6.632-0.69 0.158-1.26-0.407-1.26-1.256 0-0.96-0.41-1.444-0.96-1.527-0.91-0.139-3.12-1.218-4.01-2.144-0.69-0.712-2.05-1.474-4.38-2.701-3.1-1.6366-4.32-1.8203-6.25-0.9421-1.32 0.6001-2.08 1.5771-2.4 1.8711-0.69 0.652-2.28 0.837-2.87 1.335-0.75 0.639-2.13 0.806-4.18 2.101l-4.33 2.732 2.19 1.776 4.69 2.955 7.88 4.413c1.1 0.586 2.12 1.296 2.95 1.979zm-29.69-6.392c1.14 0 7.36-4.148 7.36-4.913 1.41-1.136 2.94-0.989 3.85-1.581 1.77-0.679 1.79-0.664-7.85-5.844-10.56-4.3869-14.09-7.726-23.29-13.406-10.95-6.8141-11.65-7.102-14.63-5.9776l-5.1 1.7644-6.7 2.4319c-3.69 1.3375-6.89 2.2387-7.13 2.0027-0.82-0.8216 1.94-3.2708 5.14-4.5525 1.77-0.7096 4.18-2.0215 5.36-2.9159 1.17-0.893 4.62-2.63 5.95-3.233 1.32-0.604 2.4-1.431 2.4-1.838s-1.62-1.702-3.62-2.877c-1.24-0.734-2.06-1.177-2.55-1.347-0.49-0.169-3.14-1.498-3.78-2.236-0.65-0.737-1.57-1.534-2.59-2.182l-3.46-2.204v2.389c0 7.232-5.88 11.519-15.81 11.519-4.96 0-6.54-0.475-10.04-3.006-4.13-2.994-4.15-3.035-4.15-9.5 0-3.572-0.38-6.494-0.86-6.494s-1.94 0.799-3.25 1.776c-1.312 0.977-3.602 2.392-5.09 3.145-4.473 2.263-3.961 4.329 1.643 6.627 5.437 2.229 6.357 3.901 5.737 10.411-0.28 2.9123-1.03 4.1154-3.487 5.5658-4.714 2.785-11.836 2.3627-16.192-0.9603-3.071-2.3424-3.496-3.207-3.496-7.1155 0-2.447 0.402-4.449 0.893-4.449s1.156-0.686 1.477-1.523c0.477-1.243 0.221-1.329-1.393-0.465-2.969 1.589-5.238 5.591-4.495 7.93 0.627 1.9771 10.892 10.058 12.776 10.058 0.513-0.00014 2.128 0.83186 3.588 1.8488 1.459 1.0169 6.029 3.5934 10.149 5.7255 7.87 4.0637 20.15 11.394 21 12.532 0.28 0.366 4.55 2.816 9.5 5.444s12.38 6.945 16.5 9.594c4.13 2.648 7.96 4.825 8.51 4.836s2.23-1.28 3.73-2.868 6.76-4.974 11.7-7.524c6.3-2.054 5.81-4.232 11.7-6.588zm1.36-2.5c-2.97 0.946-7.95 4.525-12.89 7-4.93 2.475-9.5 4.5-10.14 4.5-2.98 0-32.99-17.519-33.69-19.673-0.22-0.651 3.64-3.2575 8.67-5.8515 5.66-2.9263 8.54-3.3401 8.59-4.3715 1.8-0.7868 2.63-1.438 4.45-2.2485 2.43-0.8468 3.72-0.52434 8.46 2.1156 11.14 3.8444 16.58 8.2625 24.13 13.41 4.9 3.1 5.4 4.173 2.42 5.119zm57.57 67.232l-1.92 1.308-10.07 5.23c-5.54 2.876-10.3 5.49-10.58 5.808-1.27 1.484-7.25 3.764-8.55 3.264-2-0.77-1.81 0.66 0.3 2.27 0.97 0.73 1.24 1.34 0.6 1.36-1.22 0.03-1.1 2.66 0.7 15.53 0.54 3.85 1.05 9.02 1.13 11.5 0.07 2.47 0.63 4.87 1.23 5.32 0.7 0.53 0.73 0.98 0.09 1.25-0.55 0.24-0.85 2.97-0.67 6.19 0.45 7.86-2.09 31.36-4.36 40.42-0.59 2.37-0.42 2.62 1.42 2.14 1.15-0.3 1.86-0.92 1.58-1.38-0.84-1.36 17.76-10.97 20.03-10.35 1.3 0.35 1.57 0.23 0.78-0.32-1.52-1.06 4.14-4.71 6.12-3.95 0.71 0.27 1.92 0.04 2.7-0.51 1.07-0.76 0.93-0.86-0.6-0.4-1.97 0.58-1.97 0.57-0.05-0.91 1.06-0.83 2.32-1.5 2.78-1.5 0.47 0 0.38-0.87-0.19-1.94-1.53-2.86-1.26-3.57 0.71-1.85 0.97 0.84 3.24 1.51 5.04 1.49 2.07-0.02 2.82-0.33 2-0.84-0.86-0.54-0.21-1.02 2.01-1.47 3.75-0.75 5.05-2.81 7.52-11.89 1.98-7.27 3.68-28.41 3.68-45.71v-12.715c-1.21-3.628-0.87-7.224-1.32-11.327-0.49-5.088-1.05-9.414-1.24-9.615-0.31-0.345-7.2 2.887-10.44 4.896-0.82 0.513-4.2 2.515-7.5 4.448-3.3 1.934-5.63 3.517-5.19 3.518 1.04 0.004 11.18-5.056 15.69-7.836 3.69-2.266 5.5-2.768 4.57-1.265-0.56 0.902-5.25 3.548-13.53 7.633l-4.47 2.203zm-215.34 105.67c-1.278-1.95-2.892-7.67-3.089-8.46-0.197-0.8-0.596-6.22-0.886-12.07-0.677-13.67 1.735-22.74 7.798-29.31l3.947-4.29v-12.63l-0.083-14.45 0.367-20.362c0.329-11.155 0.472-20.408 0.317-20.562-0.963-1.4 0.322-2.789 0.399-4.653 0-2.584 0.647-3.809 2.731-5.174 6.482-4.248 7.936-8.979 3.912-12.739-1.296-1.211-3.187-3.777-4.203-5.702-3.391-6.426-1.949-22.327 2.867-31.622 1.431-2.7618 3.416-5.1714 9.905-12.024l4.692-4.4768 10.298-6.8032c5.664-3.742 13.211-8.345 16.772-10.23s10.263-5.429 11.776-6.425c1.512-0.996 5.595-3.298 9.075-5.115s7.29-3.304 8.47-3.304 2.67-0.413 8.34 0.363c5.66 0.776 10.96 3.904 11.72 6.914 0.31 1.234 1.89 3.026 3.51 3.983l2.95 1.741c5.75 3.413-3.33-1.973 8.24 4.948 4.24 2.457 5.94 4.042 5.94 5.519 0 1.498 2.01 3.3 7.25 6.5046 3.99 2.438 7.49 4.7634 7.78 5.1675 0.28 0.4041 15.84 8.8691 21.32 11.962 6.79 3.8309 8.53 4.4329 10.4 3.5899 1.24-0.557 2.25-1.301 2.25-1.652s1.58-1.208 3.5-1.904c3-3.8139 3.43-3.7996 5.93-6.106 1.48-0.5642 4.13-1.2093 5.88-1.4336 1.76-0.2243 4.5-0.7409 6.09-1.148 2.08-0.52904 2.7-0.41324 2.2 0.4056 1.47 3.4837 3.16-1.4209 4.69 0.4063 0.78 0.6594 2.14 1.3804 3.55 1.8447 4.71 1.5446 9.93 4.8901 13.43 8.599 3.49 3.708 5.27 6.527 8.68 13.57 3.41 7.044 4.05 9.362 4.05 14.615 0 3.433 0.48 7.127 1.06 8.208s1.48 5.214 2.01 9.184l2.67 16.416 0.67 6.901 1.59 13.491v15.213c0 22.72-3.28 47.29-7.16 53.63-0.73 1.2-3.91 3.57-7.06 5.26-3.16 1.68-5.54 3.38-5.31 3.76l-1.97 0.11-6.5 3.47c-22.71 12.12-32.97 17.01-36.75 17.5-3.62 0.48-4.25 0.3-4.25-1.24 0-0.98-0.35-1.79-0.78-1.79-2.2 0-22.22 11.75-22.22 13.04 0 0.53-0.78 0.98-1.75 1-0.96 0.02-6.25 2.53-11.75 5.56-5.5 3.04-11.19 6.03-12.66 6.65s-8.55 4.8-10.6 6.09c-2.06 1.29-6.44 3.83-9.74 5.64s-8.02 4.43-10.5 5.82c-2.47 1.39-6.44 3.59-8.82 4.88s-6.88 3.78-10 5.54c-5.18 2.92-6.461 3.21-14.675 3.27-3.644 0.25-15.603-3.63-18.237-5.47-10.106-5.39-19.094-13.4-26.228-23.38-1.551-2.58-3.135-4.39-4.642-5.63-1.384-1.87-2.028-3.01-2.632-4.58-0.272-1.01-1.012-2.65-2.281-5.28-1.387-2.88-3.299-7.71-4.25-10.75zm63.745-212.29c-2.867-0.778-6.181 0.491-6.54 1.025-0.992 0.264-2.024 0.855-2.86 1.778-3.992 4.411 3.591 8.8234 12.057 7.0155 1.723-0.3678 3.635-0.9795 4.25-1.3595s1.118-1.813 1.118-3.183c0-1.899-0.826-2.837-3.468-3.941-2.361-0.987-3.758-1.442-4.557-1.335zm27.16-16.185c-0.52-0.017-1.78-0.194-4.36 0.262-2.92-0.227-6.71 1.779-8.31 4.227-2.97 4.521 0.59 8.181 10.53 10.856 2.31 0.619 10.98-1.937 13.11-3.865 4.31-3.905 0.56-9.443-7.41-10.938-1.35-0.253-3.05-0.568-3.56-0.542zm-64.724 41.46c3.815-3.366 6.463-5.0378 9.589-5.0758 4.808-0.56944 5.139-0.44554 8.592 3.2152 3.018 3.2003 3.495 4.2989 2.988 6.8894-1.299 6.639-7.82 11.582-15.278 11.582-3.765 0-4.509-0.411-6.766-3.732-3.534-5.201-3.296-8.709 0.875-12.879zm4.213-9.9595c-1.067 0.7492-2.165 2.1288-3.051 2.7063-0.886 0.57756-2.396 2.137-5.185 5.0435-8.616 8.9805-12.636 21.314-10.844 33.268 1.365 9.1 13.867 18.583 28.956 21.96 10.059 2.252 26.755 1.525 35.995-1.567 6.09-2.035 6.97-2.635 6.77-4.591-0.13-1.238 0.2-2.25 0.75-2.25 0.54 0 0.98 0.675 0.98 1.5 0 1.638 1.76 1.94 3.79 0.652 0.96-0.61 1.03-1.496 0.28-3.485-0.56-1.467-0.79-2.667-0.51-2.667 0.27 0-0.19-1.328-1.03-2.951-1.67-3.24-2.08-6.05-0.65-4.499 0.48 0.522 1.65 3.312 2.58 6.2 0.94 2.887 1.9 5.25 2.14 5.25 1.57 0-7.24-26.711-10.89-33-3.45-5.96-5.64-7.752-17.979-14.735-12.893-7.297-18.232-12.095-17.173-15.433 0.58-1.826 0.429-1.894-1.708-0.766-1.29 0.681-4.973 3.014-8.186 5.1847-2.938 1.9858-4.065 3.4982-5.035 4.179zm110.12 178.95c-18.15 9.69-22 12.05-20.42 11.26l-6.66 3.66c-3.67 2.01-6.67 3.21-6.67 2.67 0-0.55 2.87-2.4 6.36-4.13l3.32-2.24 5-2.38 3.41-1.71c9.67-4.82 19.91-10.17 19.91-11.33 0-0.84 0.7-1.1 1.92-0.71 1.05 0.34 2.21-0.86 2.56-1.43 0.78-1.27 2.52-1.38 2.52-0.16 0 0.48-1.31 1.42-2.93 2.09-4.86 3.48-2.89 1.15-8.32 4.41zm-20.03 36.61c0.43 0 2.13-0.9 3.78-1.99s3.68-1.97 4.5-1.96c0.83 0.02 0.27 0.71-1.25 1.53-3.75 2.04-3.5 2.87 0.29 0.91 1.67-0.86 2.78-1.98 2.46-2.48-0.31-0.51 0.92-1.67 2.72-2.59 1.81-0.92 6.54-3.64 10.52-6.05 7.22-4.35 10.02-5.39 8.67-3.21-0.45 0.72-0.27 0.89 0.46 0.43 0.64-0.39 0.94-1.1 0.65-1.56-0.74-1.19 8.34-6.29 10.04-5.64 0.78 0.3 1.31 0.07 1.18-0.52s3.23-2.85 7.46-5.04c7.03-3.63 7.85-4.38 9.5-8.65 2.44-6.32 2.39-30.06-0.08-34.67-0.88-1.65-1.61-3.77-1.61-4.71-0.01-2.67-2.2-6.79-3.61-6.79-0.7 0-1.6-0.53-2-1.17-0.49-0.79-0.18-0.96 0.94-0.53 2.04 0.78 2.04 0.76 0.05-3.22-0.88-1.78-2.26-3.48-3.05-3.78-0.8-0.31-1.22-1.15-0.94-1.88 0.56-1.47-6.3-7.5-7.45-11.15-0.05-0.16-5.01-9.678-17.68-17.733-0.47-0.32-4.14-2.265-4.55-2.398-0.89-0.657-2.25-1.345-4.2-2.136-3.02-1.226-5.75-1.898-6.49-2.156-1.06-0.873-4.01-2.522-7.69-0.814-0.46 0.441-4.89 2.926-9.84 5.52-4.95 2.595-12.6 6.86-17 9.477-9.22 5.49-12.09 7.1-23.03 12.95-4.379 2.34-10.44 5.72-13.465 7.51s-8.875 5.04-13 7.23-9.828 5.26-12.674 6.82l-5.174 2.85 4.033 1.8c2.218 1 4.418 1.81 4.889 1.81 0.47 0 4.358 2.12 8.64 4.72 8.903 5.4 18.159 14.26 24.2 23.15 4.821 6.79 5.061 7.82 7.521 12.82 7.14 14.2 10.53 31.09 8.66 43.12-0.59 3.85-1.38 7.76-1.74 8.71-0.56 1.47-0.36 1.55 1.43 0.59 1.14-0.61 2.68-1.09 3.4-1.07 0.72 0.03-0.71 1.13-3.19 2.46-5.44 2.91-4.54 3.33 1.04 0.48 2.17-1.11 3.84-2.53 3.71-3.15-0.24-1.09 7.27-5.94 20.45-13.2 4.3-2.37 6.41-4.17 6.64-5.65 0.31-2.05-0.1-1.95-6.5 1.59-3.76 2.07-9.09 4.93-11.84 6.35s-5.22 2.85-5.5 3.18c-0.93 1.12-5.16 3.06-5.64 2.59-0.56-0.56 13.67-8.91 25.39-14.92 3.39-1.73 4.25-2.71 4.25-4.82 1.7 2.06 1.57 5.6 1.72 7.04zm-52.438 33.33c11.558-4.86 16.718-14.31 16.718-31.39 0-19.39-8.21-38.97-24.025-57.29-2.687-3.12-13.356-11.64-14.565-11.64-0.411 0-1.477-0.66-2.368-1.47s-4.649-2.61-8.351-4c-22.073-8.31-37.707 3.84-37.675 29.26 0.015 11.59 0.843 16.38 2.762 16 1.228-0.24 1.462-2.13 1.305-10.53-0.286-15.29 3.174-23.55 12.199-29.13 3.358-2.07 4.754-2.29 12.556-1.98 7.666 0.3 9.655 0.79 15.694 3.85 7.968 4.03 17.163 12.22 23.51 20.94 1.13 1.55 2.288 2.97 3.275 4.04 0.846 0.57 2.826 4.99 3.06 5.41 0.403 1.22 1.203 3.12 2.233 5.25 5.9 12.16 8.46 26.82 6.42 36.88-3.21 15.89-14.415 23.95-29.206 21-7.358-1.46-10.977-3.17-19.634-9.27-5.422-3.82-15.869-15.32-19.079-21.01-0.707-1.26-1.288-1.44-2.078-0.66-2.476 2.45 12.244 20.38 22.55 27.47 7.345 5.06 16.496 8 18.441 8.2 5.199 1.51 12.151 2.97 16.258 0.07zm-0.777-8.21c7.905-4.94 11.395-11.56 12.225-23.14 1-14.17-6.37-34.34-17.828-48.75-4.372-5.5-18.372-17.21-20.594-17.23-0.442 0-1.95-0.6-3.352-1.33-3.594-1.88-11.47-2.79-17.329-2.02-6.528 0.87-12.541 6.59-15.136 14.4-1.828 5.5-2.788 17.32-1.806 22.21 1.066 5.3 1.831 2.67 1.479-5.08-1.014-22.33 13.412-34.65 32.384-27.67 12.375 4.55 26.851 18.99 33.651 33.55 5.371 11.5 6.151 14.89 6.231 26.95 0.06 9.97-0.22 12.03-2.09 15.5-7.112 13.16-18.815 15.88-34.672 8.05-7.303-3.61-13.774-9.42-23.488-21.06-2.877-3.45-3.078-3.56-1.491-0.81 2.816 4.89 12.333 15.59 16.999 19.12 3.643 2.75 11.694 6.96 16.317 8.53 0.825 0.28 4.65 0.54 8.5 0.59 5.21 0.05 7.767-0.41 10-1.81zm-25.321-100.36c0.726-0.69 3.121-2.22 5.321-3.4s6.7-3.6 10-5.37c10.139-5.43 16.955-9.21 17.995-9.98 2.95-2.17 18.72-10.12 19.17-9.67 0.29 0.29-1.87 1.75-4.8 3.24-2.94 1.48-6.92 3.69-8.85 4.89-3.84 2.4-11.605 6.69-25.515 14.08-4.95 2.63-9.888 5.39-10.973 6.12-2.491 1.69-4.102 1.75-2.348 0.09zm15.008 96.56c-0.721-0.28-1.584-0.25-1.916 0.08-0.333 0.34 0.258 0.57 1.312 0.53 1.165-0.05 1.402-0.29 0.604-0.61zm-14.913-2.56c-6.406-3.44-12.831-9.22-19.356-17.44-6.247-7.86-8.11-8.68-2.769-1.21 6.468 9.04 20.271 20.61 24.835 20.83 0.817 0.04-0.403-0.94-2.71-2.18zm15.976 0.59c-0.688-0.28-1.813-0.28-2.5 0-0.688 0.27-0.125 0.5 1.25 0.5s1.937-0.23 1.25-0.5zm-10.416-1.22c1.03-0.65 0.897-0.96-0.583-1.35-1.197-0.31-1.918 0.01-1.918 0.86 0 1.57 0.613 1.69 2.501 0.49zm12.166-0.51c0-0.22-1.543-0.57-3.43-0.79-1.886-0.22-3.21-0.05-2.941 0.39 0.484 0.78 6.371 1.15 6.371 0.4zm4-0.61c0-0.55-0.45-1-1-1s-1 0.45-1 1 0.45 1 1 1 1-0.45 1-1zm32.995-1.57c0-0.28-0.9-0.02-2 0.57s-2 1.29-2 1.57c0 0.27 0.9 0.02 2-0.57s2-1.3 2-1.57zm-45.13 1.1c-0.85-0.85-7.865-3.57-7.865-3.05 0 0.28 1.462 1.15 3.25 1.93 3.3 1.45 5.466 1.97 4.615 1.12zm6.135-2.33c0-1.42-2.345-3.2-4.2-3.2-1.765 0-2.45 2.01-1.133 3.33 0.941 0.94 5.333 0.83 5.333-0.13zm4-0.08c0-1.28-2.94-3.52-3.667-2.79-0.726 0.73 1.511 3.67 2.789 3.67 0.483 0 0.878-0.4 0.878-0.88zm40.805-1.37c2.08-1.24 4.65-2.8 5.73-3.47 1.08-0.68 3.43-1.97 5.23-2.88 1.8-0.9 3.54-2.08 3.87-2.62 0.64-1.03-8.1 3.64-15.64 8.36-5.33 3.34-4.64 3.86 0.81 0.61zm-51.82 0.5c-0.034-1.64-1.818-3.41-5.312-5.29-4.487-2.4-4.673-2.41-4.673-0.16 0 1.12 1.611 2.61 4.25 3.94 4.675 2.35 5.758 2.63 5.735 1.51zm14.015 0.37c0-0.21-0.788-0.99-1.75-1.75-1.586-1.24-1.621-1.21-0.378 0.38 1.307 1.66 2.128 2.19 2.128 1.37zm4.872-2.36c-3.109-3.93-4.872-5.58-4.872-4.54 0 1.37 4.179 6.24 5.372 6.26 0.48 0.01 0.255-0.76-0.5-1.72zm-17.283-5.92c-2.757-4.05-3.157-5.34-1.656-5.34 0.512 0 1.247 1.01 1.631 2.25 0.909 2.93 4.502 8.01 5.182 7.34 0.694-0.7-7.475-13.55-10.157-15.99-1.405-1.27-1.688-2.03-0.865-2.32 0.91-0.32 0.812-1.06-0.385-2.89-2.134-3.25-1.072-4.13 1.678-1.38 3.537 3.54 5.444-0.79 3.53-8.01-0.613-2.32-0.541-2.29 0.991 0.37 1.038 1.8 1.486 4.22 1.204 6.5-0.499 4.04 1.09 6.95 7.433 13.6 3.023 3.17 4.037 3.72 5.033 2.72 0.995-1 0.344-2.07-3.231-5.32-2.462-2.25-3.352-3.36-1.977-2.49 6.317 4.04 6 4.08 6-0.76 0-3.93-0.325-4.58-2.75-5.54l-2.75-1.09 2.589 0.33 2.589 0.34-1.679-4.42c-0.923-2.44-2.088-4.72-2.589-5.08-0.5-0.37-1.035-1.78-1.189-3.14-0.22-1.96-0.021-2.22 0.95-1.25 0.676 0.67 2.095 1.23 3.154 1.23 1.612 0 1.826-0.5 1.315-3.05-0.378-1.89-0.236-2.82 0.375-2.44 0.542 0.33 0.985 1.25 0.985 2.05 0 0.79 0.45 1.44 1 1.44 1.395 0 1.286-0.51-1.126-5.29-3.447-6.83-9.828-14.89-15.597-19.71-2.962-2.48-5.923-4.98-6.581-5.56-2.481-2.18-14.877-6.44-18.756-6.44-8.326 0-13.914 5.52-16.597 16.39-2.265 9.18-1.057 17.7 2.657 18.72 1.449 0.4 1.789 0.73 0.809 0.79-2.725 0.16-2.888 1.52-0.864 7.22 1.05 2.96 1.96 4.7 2.022 3.88 0.066-0.87 0.747-0.33 1.627 1.29 0.833 1.54 1.269 3.79 0.969 5-0.299 1.21-0.28 1.63 0.043 0.92 0.743-1.64 3.394 0.3 3.394 2.47 0 0.79 0.419 1.18 0.932 0.86 1.361-0.84 4.018 3.41 3.329 5.32-0.665 1.85 4.335-3.08 6.968-6.87 1.335-1.92 1.585-2.04 1.098-0.49-0.347 1.1-1.252 2.72-2.01 3.61-1.555 1.82-2.606 5.97-1.423 5.62 0.425-0.13 2.76 1.5 5.189 3.63 3.724 3.25 4.473 3.58 4.776 2.06 0.197-0.98-0.366-2.32-1.25-2.97-2.284-1.67-1.998-2.73 0.391-1.45 1.695 0.91 2 0.76 2-0.97 0-1.12 0.486-2.03 1.079-2.03 0.662 0 0.842 1.08 0.465 2.8-0.543 2.47-0.196 2.99 2.967 4.5l3.582 1.71-0.658-3.51c-0.893-4.76 0.233-4.45 1.546 0.43 0.627 2.33 1.764 4.09 2.789 4.31 2.633 0.59 2.616 0.22-0.181-3.9zm-9.089-22.34c-0.34-0.55-0.168-1 0.382-1s1.278 0.45 1.618 1 0.168 1-0.382 1-1.278-0.45-1.618-1zm-22.068-6.27c0.247-2.08 0.053-3.53-0.432-3.23-1.271 0.78 0.022-6.54 1.676-9.5l1.397-2.5-0.616 2.5c-0.339 1.37-0.835 3.29-1.104 4.25-0.268 0.96-0.274 1.75-0.014 1.75 0.261 0 1.253-2.48 2.205-5.5 0.951-3.03 2.082-5.5 2.512-5.5 0.431 0 0.188 1.69-0.539 3.75s-1.871 5.77-2.541 8.25c-0.67 2.47-1.618 5.62-2.107 7-0.728 2.05-0.807 1.82-0.437-1.27zm4.67-7.14c-0.141-2.65 3.08-12.59 4.081-12.59 1.102 0 1.045 0.4-0.599 4.21-0.779 1.81-1.858 4.86-2.398 6.79-0.54 1.92-1.028 2.64-1.084 1.59zm34.854-6.68c-1.064-1.98-1.204-2-3.036-0.34-2.169 1.96-2.493 1.32-0.745-1.48 0.947-1.52 0.85-2.21-0.5-3.56-2.468-2.47-2.043-2.86 1.075-1 1.512 0.9 3.528 3.17 4.479 5.05 1.832 3.62 0.626 4.88-1.273 1.33zm-30.956-0.37c0-0.24 0.537-1.63 1.193-3.07 0.81-1.77 0.861-2.83 0.159-3.29-0.667-0.44-0.162-2.64 1.42-6.18 2.329-5.22 2.502-5.38 3.385-3.05 0.717 1.9 0.346 3.76-1.613 8.13-1.399 3.12-2.544 6.17-2.544 6.79s-0.45 1.13-1 1.13-1-0.21-1-0.46zm5.585-14.29c-0.307-0.31-1.24 1.07-2.072 3.06-2.142 5.13-1.798 5.89 0.603 1.34 1.116-2.11 1.777-4.09 1.469-4.4zm-0.585 9.54c0-0.85 0.749-2.16 1.664-2.92 1.522-1.26 1.553-1.16 0.364 1.13-1.742 3.35-2.028 3.6-2.028 1.79zm-7.954-0.79c0.057-2.25 3.862-8.84 3.912-6.78 0.023 0.95-0.856 3.2-1.954 5s-1.979 2.6-1.958 1.78zm46.919 48.06c-0.02-1-0.55-0.66-1.47 0.94-1.866 3.27-1.843 5.04 0.04 2.56 0.8-1.07 1.45-2.65 1.43-3.5zm-39.965 0.44c-2.453-2.61-4.063-3.49-2.131-1.16 0.612 0.74 0.78 1.71 0.372 2.16-0.407 0.45-0.21 0.51 0.44 0.14 0.649-0.37 1.463-0.22 1.809 0.34 0.345 0.56 0.905 1.02 1.243 1.02 0.339 0-0.441-1.13-1.733-2.5zm37.013 0.47c0.842-1.57 0.728-2.37-0.516-3.62-1.464-1.46-1.71-1.44-2.931 0.23-1.011 1.38-1.062 2.25-0.209 3.62 1.452 2.32 2.32 2.27 3.656-0.23zm-7.018-0.72c-0.002-0.41-1.488-2.37-3.301-4.34-1.814-1.98-4.55-5.13-6.082-7-1.532-1.88-2.634-2.88-2.449-2.22 0.331 1.17 10.915 14.31 11.525 14.31 0.172 0 0.31-0.34 0.307-0.75zm10.72-12.02c-0.23-1.5-0.41-0.03-0.41 3.27 0.01 3.3 0.2 4.53 0.42 2.73s0.22-4.5-0.01-6zm48.78 7.78c0.35-0.57-0.05-0.74-0.94-0.39-1.74 0.66-2.05 1.38-0.61 1.38 0.51 0 1.21-0.45 1.55-0.99zm-50.68-6.13c-0.26-3.67-0.681-4.43-2.565-4.7-2.049-0.29-2.25 0.08-2.25 4.2 0 3.26 0.487 4.79 1.75 5.51 2.533 1.43 3.425-0.02 3.065-5.01zm48.18-0.28c0-0.21 2.37-1.62 5.25-3.12 7.93-4.13 20.16-11.63 20.99-12.88 0.4-0.6 0.74-0.74 0.75-0.3 0.02 0.84 11.43-4.89 23.99-12.04 8.64-4.92 11.93-5.72 4.52-1.1-2.75 1.71-5.28 3.56-5.63 4.11-0.35 0.54-1.11 0.69-1.68 0.34-0.58-0.35-1.34-0.17-1.7 0.41-0.35 0.57-4.3 2.85-8.77 5.06-4.46 2.2-8.59 4.38-9.17 4.83-0.57 0.45-3.18 1.99-5.78 3.43-2.61 1.43-8.33 4.64-12.72 7.13-7.21 4.09-10.05 5.26-10.05 4.13zm32-38.34c0-0.51 2.53-2.24 5.62-3.85 3.09-1.6 5.84-3.47 6.11-4.16 0.26-0.68 0.88-1 1.37-0.69 0.48 0.3 3.95-1.28 7.7-3.51s7.22-4.05 7.71-4.05c1.47 0-0.7 1.64-6.01 4.57-5.71 3.15-8.67 4.81-16.75 9.37-3.16 1.79-5.75 2.83-5.75 2.32zm-143.52 34.88c-1.288-2.67-3.113-7.28-4.055-10.25-1.983-6.25-2.53-7.07-4.058-6.1-2.408 1.53 5.624 21.21 8.655 21.21 1.658 0 1.616-0.38-0.542-4.86zm3.305 0.11c-0.646-1.51-1.467-3.2-1.826-3.75-0.358-0.55-1.508-3.81-2.554-7.24-1.793-5.89-3.817-8.89-2.701-4.01 0.944 4.12 6.68 17.75 7.473 17.75 0.43 0 0.254-1.24-0.392-2.75zm131.21-1.79c0-0.28-1.8 0.42-4 1.54s-4 2.26-4 2.54c0 0.27 1.8-0.42 4-1.54s4-2.27 4-2.54zm-128.4 0.94c-0.356-0.93-0.872-1.46-1.147-1.19-0.275 0.28-0.209 1.26 0.147 2.19s0.872 1.46 1.147 1.18c0.275-0.27 0.209-1.25-0.147-2.18zm54.918-8.98c-1.567-4.99-3.551-6.8-4.955-4.52-0.971 1.57 2.62 10.99 4.324 11.34 2.395 0.49 2.518-0.83 0.631-6.82zm-58.499 1.47c-1.112-2.41-1.736-3.27-1.387-1.89 1.071 4.21 2.398 7.3 2.917 6.78 0.271-0.27-0.417-2.47-1.53-4.89zm61.586 1.38c-0.33-0.33-0.57 0.26-0.53 1.31 0.05 1.17 0.29 1.4 0.61 0.61 0.29-0.73 0.25-1.59-0.08-1.92zm-0.87-5.77c-1.35-4.41-2.926-4.65-1.665-0.26 0.511 1.79 0.93 3.36 0.93 3.5s0.405 0.26 0.905 0.26c0.51 0 0.44-1.53-0.17-3.5zm88.79 0.69c-0.31-0.31-1.11 0-1.79 0.68-0.98 0.99-0.87 1.11 0.56 0.56 0.98-0.37 1.54-0.93 1.23-1.24zm19.56-4.15c1.05-3.01 1.9-6.61 1.88-8-0.04-2.5-0.07-2.49-1.36 0.46-0.72 1.65-3.02 4.66-5.12 6.69-3.29 3.19-3.64 3.92-2.49 5.3 2.48 2.99 5.04 1.38 7.09-4.45zm-171.5-1.79c-1.075-1.07-1.646 0.43-0.891 2.35 0.708 1.81 0.762 1.81 1.112 0.07 0.202-1.01 0.103-2.09-0.221-2.42zm162.91 0.76c0.35-0.57-0.05-0.74-0.94-0.39-1.74 0.66-2.05 1.38-0.61 1.38 0.51 0 1.21-0.45 1.55-0.99zm-164.83-10.26c-0.277-0.69-0.504-0.13-0.504 1.25 0 1.37 0.227 1.94 0.504 1.25 0.278-0.69 0.278-1.81 0-2.5zm204.83-0.74c0.35-0.57-0.05-0.74-0.94-0.39-1.74 0.66-2.05 1.38-0.61 1.38 0.51 0 1.21-0.45 1.55-0.99zm-27.5-39.29c-1.42-18.81-1.95-24.63-2.51-27.3-0.63-2.98-4.65-6.99-7.79-7.78-1.48-0.38-2.7-1.366-2.7-2.205s-0.56-1.452-1.25-1.363c-2.63 0.342-3.75-0.127-3.75-1.574 0-0.938-0.94-1.5-2.53-1.5-1.39 0-2.78-0.66-3.09-1.467-0.31-0.806-3.56-3.163-7.22-5.237-3.66-2.073-7.4-4.226-8.32-4.783-11.71-7.131-13.07-7.754-13.93-6.398-1.9 3.009-0.79 4.427 5.55 7.051 1.22 0.507 2.27 0.909 3.15 1.21 1.79 0.19 5.72 3.19 10.74 6.888 1.21 0.881 2.13 1.553 2.85 2.036 2.28 1.546 3.13 2.518 3.72 3.497 0.43 0.722 1.23 1.645 2.48 2.942 1.99 2.073 4.69 5.063 6.01 6.653 3.12 3.76 12.59 20.36 12.59 22.06 0 0.72 1.02 1.59 2.25 1.93 1.84 0.5 1.98 0.79 0.79 1.56-1.25 0.8-1.19 1.23 0.41 3 1.03 1.13 1.39 2.06 0.81 2.06-0.7 0-0.58 1.6 0.34 4.66 0.77 2.56 1.47 6.95 1.55 9.75 0.09 2.94 0.33 3.92 0.57 2.31 0.23-1.52-0.09-9.62-0.72-18zm-171.91-3.58c0.048-2.55 0.438-6.89 0.866-9.64 0.714-4.59 0.79-4.27 0.912 3.77l0.134 8.77 6.25-3.47c3.437-1.91 9.85-5.46 14.25-7.9 17.682-9.78 16.483-8.87 16.492-12.48 0.005-2.04 0.408-3.06 1.049-2.67 0.572 0.36 0.767 1.51 0.432 2.56-0.825 2.6 0.618 2.42 6.512-0.83l4.986-2.75 0.03-7.502c0.016-4.125 0.499-8.175 1.072-9 0.738-1.063 0.849 0.906 0.38 6.75-0.363 4.542-0.401 8.252-0.084 8.252 1.353 0 9.626-4.47 9.626-5.2 0-0.44 0.76-0.802 1.68-0.802s2.49-0.745 3.5-1.655c1.49-1.352 1.82-3.186 1.82-10 0-4.59-0.2-8.345-0.45-8.345s-1.6 0.522-3 1.16c-2.41 1.101-2.56 1.605-2.75 9.75l-0.2 8.59-0.34-8.25c-0.36-8.847-0.31-8.788-6.13-7.625-2.496 0.499-3.152 1.153-3.261 3.25-0.122 2.355-0.181 2.394-0.57 0.375-0.414-2.149-0.87-2.25-10.114-2.25-15.963 0-30.144-4.251-39.568-11.861-2.138-1.727-4.388-3.104-5-3.06-0.688 0.049-0.641 0.269 0.122 0.578 0.952 0.385 1.087 5.062 0.591 20.421 3.669 11.124-2.183 21.084-2.31 24.674-0.008 1.79 0.435 3.25 0.985 3.25 1.507 0 1.279 16.32-0.25 17.86-1.002 1.01-0.903 1.12 0.5 0.59 1.3-0.49 1.772-1.86 1.838-5.31zm1.991-32.559c-0.044-1.054 0.193-1.645 0.525-1.312 0.332 0.332 0.368 1.194 0.079 1.916-0.319 0.795-0.556 0.565-0.604-0.604zm36.921-2.583c0-1.65 0.45-3 1-3s1 1.35 1 3-0.45 3-1 3-1-1.35-1-3zm-37-13c0-5.134 0.323-9.01 0.718-8.615 0.735 0.734 0.461 16.769-0.299 17.529-0.23 0.23-0.419-3.781-0.419-8.914zm13 50.182c0-0.46 1.912-1.83 4.25-3.06 10.288-5.42 17.831-9.52 25.75-14.02 4.675-2.65 10.525-5.9 13-7.21 2.475-1.32 4.725-2.62 4.995-2.89 0.28-0.28 2.3-1.39 4.5-2.48s6.79-3.66 10.2-5.706c3.4-2.048 8.35-4.874 11-6.279 2.64-1.405 5.48-2.985 6.3-3.511 0.83-0.526 4.11-2.377 7.3-4.113 6.3-3.428 7.14-4.829 1.49-2.466-1.94 0.81-3.89 1.154-4.32 0.763s-0.49-0.193-0.13 0.44c0.41 0.71-1.62 2.337-5.3 4.25-6.5 3.383-7.52 3.691-6.44 1.945 0.45-0.721 0.27-0.883-0.46-0.431-0.64 0.398-0.94 1.1-0.65 1.559 0.44 0.71-3.55 3.337-12.99 8.559-6.46 3.58-12.51 6.99-16.149 9.12-3.104 1.81-4.284 2.1-4.671 1.14-0.362-0.91-0.541-0.83-0.596 0.26-0.044 0.85-2.116 2.54-4.606 3.75-5.127 2.49-5.875 2.66-4.911 1.1 0.477-0.77 0.049-0.76-1.441 0.03-2.568 1.38-2.782 2.21-0.371 1.45 1.494-0.47 1.466-0.31-0.191 1.04-2.232 1.81-3.999 2.1-2.997 0.48 0.438-0.71-0.164-0.66-1.691 0.13-3.321 1.73-3.766 2.34-1.121 1.52 3.668-1.12 2.569 0.24-2 2.49-2.338 1.14-5.15 2.62-6.25 3.28-6.142 3.69-15.289 8.68-15.905 8.68-0.392 0-0.407-0.5-0.033-1.1 0.477-0.77 0.049-0.76-1.441 0.03-3.045 1.63-2.649 2.07 1.879 2.07 2.2 0 4-0.37 4-0.82zm6.526-7.99c-0.307-0.31-1.114 0-1.793 0.68-0.98 0.99-0.865 1.11 0.56 0.56 0.986-0.37 1.541-0.93 1.233-1.24zm-23.792-29.976c-0.206-2.594-0.371-0.216-0.369 5.286 0.003 5.5 0.171 7.62 0.373 4.71 0.203-2.9 0.201-7.402-0.004-9.996zm58.792 10.976c-0.307-0.31-1.114 0-1.793 0.68-0.98 0.99-0.865 1.11 0.56 0.56 0.986-0.37 1.541-0.93 1.233-1.24zm4.969-2.18c0.35-0.57-0.05-0.74-0.94-0.39-1.736 0.66-2.053 1.38-0.61 1.38 0.51 0 1.21-0.45 1.55-0.99zm106-5.012c-0.33-0.55-1.06-1-1.61-1s-0.72 0.45-0.39 1c0.34 0.552 1.07 1.002 1.62 1.002s0.72-0.45 0.38-1.002zm10 0c0.34-0.55 0.17-1-0.38-1s-1.28 0.45-1.62 1c-0.33 0.552-0.16 1.002 0.39 1.002s1.28-0.45 1.61-1.002zm-15-3c-0.33-0.55-1.15-0.993-1.8-0.985-0.72 0.009-0.6 0.402 0.3 0.985 1.93 1.241 2.27 1.241 1.5 0zm25.29-2.658c7.66-4.171 11.03-6.342 9.84-6.342-1.04 0-17.63 9.017-17.63 9.581 0 0.844 1.2 0.345 7.79-3.239zm-113.99-7.173c0.17-4.794-0.11-8.169-0.68-8.169-0.53 0-1.11 3.826-1.29 8.502-0.21 5.364 0.04 8.38 0.67 8.17 0.55-0.183 1.14-4.009 1.3-8.503zm84.2 7.366c0-0.256-1.01-0.955-2.25-1.555-2.16-1.047-2.17-1.029-0.3 0.465 2.04 1.634 2.55 1.855 2.55 1.09zm5.19-7.95c0.44-1.621-0.73-2.91-2.69-4.148-1.79-1.135-3.56-2.429-4.25-2.432-0.68-0.003-2.12-0.882-3.19-1.954-0.6-0.595-0.96-0.789-1.34-0.987-0.86-0.446-2.26-1.401-2.99-1.7-0.93-0.38-8.94-6.364-10.2-6.364-0.25 0-15.3-8.143-16.33-8.825-1.17-0.838-0.98-2.614-4.78-3.175-0.23 0-0.42 2.652-0.42 5.893 0 4.464 0.94 5.391 1.6 6.503 0.44 0.762 5.86 3.439 10.41 5.946 0.43 0.24 0.86 0.475 1.29 0.659 1.21 0.528 4.17 2.026 4.92 2.677 2.84 2.477 9.74 6.697 10.41 6.025 0.28-0.27 1.6 0.61 2.94 1.957 3.58 1.422 5.9 3.644 9.43 5.748 4.43 2.513 4.51 2.521 4.84 0.493 0.23-3.322 0.63-3.386 0.35-6.316zm-87.53 3.146c-0.27-0.677-0.48 0.119-0.46 1.769s0.24 2.204 0.5 1.231c0.25-0.973 0.23-2.323-0.04-3zm3.34-5.957c0-4.459-0.17-7.92-0.37-7.691-0.97 1.057-1.58 17.006-0.63 16.423 0.55-0.343 1-4.273 1-8.732zm5.53 7.419c-0.31-0.308-1.11-0.001-1.79 0.683-0.98 0.987-0.87 1.102 0.56 0.56 0.98-0.376 1.54-0.935 1.23-1.243zm17.72-10.554c1.98-0.486 3.43-2.04 5.23-5.585 1.37-2.702 2.95-5.196 3.51-5.542 0.58-0.361 1.02-4.987 1.02-10.821 0.01-8.419 0.35-10.706 1.96-13.149l1.95-2.959-5.71-3.582c-10.35-6.498-13.21-8.169-13.21-7.737 0 0.236 3.36 2.621 7.45 5.301 4.1 2.68 7.27 5.057 7.04 5.283-0.74 0.74-20.45-12.103-19.91-12.975 0.29-0.467-0.15-0.591-0.97-0.275-0.84 0.321-5.06-1.559-9.55-4.251-7.59-4.545-10.24-6.965-6.31-5.74 1.31 0.406 1.25 0.232-0.25-0.684-1.1-0.676-3.3-2.135-4.89-3.244l-2.89-2.016 2.54 4.418c1.4 2.431 2.86 5.544 3.25 6.919 0.4 1.375 1.31 3.85 2.04 5.5 1.9 4.343 5.66 17.576 5.82 20.5 0.11 2.02-0.78 2.979-4.61 5-3.37 1.775-4.75 3.112-4.75 4.61-0.01 2.396 3.79 8.368 7.5 11.808 2.29 2.12 2.49 3.026 2.49 10.939v8.627l9.25-4.835c5.09-2.66 10.49-5.139 12-5.51zm46.25 8.361c-0.33-0.55-1.15-0.993-1.8-0.985-0.72 0.009-0.6 0.402 0.3 0.985 1.93 1.241 2.27 1.241 1.5 0zm-5.5-3.393c0-0.216-0.69-0.661-1.55-0.989-0.89-0.341-1.29-0.174-0.94 0.393 0.59 0.95 2.49 1.406 2.49 0.596zm-4-2c0-0.216-0.69-0.661-1.55-0.989-0.89-0.341-1.29-0.174-0.94 0.393 0.59 0.95 2.49 1.406 2.49 0.596zm-82.495-1.958c6.655-1.282 15.975-4.665 19.735-7.166 1.61-1.068 1.55-1.339-0.83-3.569-1.41-1.328-2.87-2.189-3.23-1.914-0.64 0.475-3.27-4.208-4.78-8.5-0.6-1.705-0.76-1.753-1.11-0.326-0.43 1.784 2.92 9.16 5.49 12.082 0.85 0.966 1.29 2.016 0.97 2.334-0.96 0.957-7.75-9.886-7.75-12.372 0-2.534 0.9-2.517-12.429-0.234-3.263 0.558-8.066 1.016-10.673 1.016-8.682 0-22.849-3.592-29.811-7.558-3.432-1.955-4.6-2.23-5.235-1.23-1.215 1.917-1.015 3.003 0.403 2.187 0.726-0.418 0.901-0.338 0.417 0.19-0.459 0.501-1.321 0.911-1.917 0.911s-1.292 0.625-1.546 1.389c-0.321 0.961-0.038 1.133 0.916 0.558 1.049-0.632 1.021-0.366-0.12 1.111-1.785 2.311-3.182 3.406-4.372 3.427-0.48 0.008-0.263-0.773 0.482-1.735 1.095-1.414 0.925-1.383-0.885 0.162-2.126 1.814-2.154 2.009-0.53 3.804l2.017 2.784 4.394 3.305c12.299 9.253 31.95 12.897 50.394 9.344zm0.855-8.343c-0.849-2.031-1.721-5.294-1.937-7.25-0.371-3.351-0.309-3.296 1.069 0.944 0.804 2.475 2.174 5.737 3.048 7.25 0.99 1.726 1.17 2.75 0.47 2.75-0.61 0-1.802-1.662-2.65-3.694zm16.64-0.806c-0.7-0.852-1.06-1.774-0.78-2.049 0.27-0.275 1.08 0.197 1.78 1.049 0.71 0.851 1.06 1.773 0.79 2.048-0.28 0.275-1.08-0.197-1.79-1.048zm-67.968-6.764c-0.042-1.177 4.376-7.71 5.223-7.724 0.412-0.007 0.738 0.325 0.723 0.738-0.037 1.033-5.913 7.936-5.946 6.986zm161.17 5.264l-0.39-9.5-8.65-5.154c-9.68-5.766-17.16-9.639-17.16-8.892 0 0.272 1.4 1.214 3.1 2.094s2.88 1.812 2.62 2.072c-0.8 0.803-7.23-3.321-6.98-4.474 0.14-0.598-0.76-1.575-2-2.171-2.15-1.043-2.16-1.025-0.29 0.47 3.62 2.902-0.15 1.572-7.34-2.588-3.93-2.279-6.94-4.352-6.69-4.608 0.26-0.255 2.97 0.967 6.03 2.717 3.05 1.749 5.55 2.956 5.55 2.681 0-1.17-11.19-6.785-12.52-6.278-0.79 0.306-2.97 2.936-4.84 5.844l-3.4 5.287 2.53 1.664c4.37 2.792 3.21 2.108 5.55 3.746 6.91 4.899 20.53 12.916 34.67 20.041 2.06 0.956 5.06 2.682 6.96 4.212 1.89 1.53 3.49 2.681 3.55 2.559 0.05-0.122-0.08-4.497-0.3-9.722zm-6.7-10.327c-7.67-4.417-12.68-7.821-12.21-8.295 0.44-0.44 15 7.855 17.16 9.777 1.87 1.661-0.96 0.815-4.95-1.482zm16.52 15.891c2.12-1.135 6.84-3.639 10.49-5.564l6.64-3.5c2.85-1.461 2.39-0.995 6.19-3.266 1.55-0.731 2.48-1.939 3.26-3.798 1.69-4.043 1.79-8.035 0.32-12.262l-1.09-3.124-3.87 1.975c-4.34 2.21-5.36 2.436-4.46 0.986 0.35-0.566-0.05-0.735-0.94-0.395-0.85 0.326-1.34 0.928-1.08 1.338 0.25 0.409-0.66 1.343-2.03 2.074-0.75 0.401-1.22 0.775-1.45 1.106-0.81 1.168-2.16 1.56-2.86 1.725-0.66 0.155-1.5 0.5-2.42 1.013-14.54 8.136-14.86 8.269-12.59 5.378 1.26-1.605 1.22-1.63-0.47-0.302-1.59 1.255-1.76 2.456-1.29 9 0.3 4.153 0.57 8.619 0.59 9.924 0.04 2.045 0.26 2.192 1.62 1.065 0.87-0.719 3.31-2.237 5.44-3.373zm-60.14 0.818c1.63-3.577 1.45-4.163-1.78-5.831-2.73-1.413-2.98-1.371-4.32 0.724-3.61 5.637-3.11 7.354 2.16 7.504 2.06 0.059 3.11-0.58 3.94-2.397zm8.62-2.382c-0.33-0.55-1.06-1-1.61-1s-0.72 0.45-0.39 1c0.34 0.55 1.07 1 1.62 1s0.72-0.45 0.38-1zm-73.502-18.75c-0.003-0.413-0.9-5.925-1.993-12.25-2.287-13.238-2.292-13.299-1.115-12.571 0.486 0.3 1.195 2.617 1.574 5.149 0.38 2.531 0.889 5.575 1.132 6.762 0.969 4.74 1.656 13.66 1.051 13.66-0.353 0-0.645-0.338-0.649-0.75zm11.002-1.75c0-3.21 0.64-3.21 1.25 0 0.26 1.375 0.09 2.5-0.38 2.5-0.48 0-0.87-1.125-0.87-2.5zm-24.452-0.431c-0.317-0.512-0.118-1.214 0.441-1.559 0.559-0.346 1.016 0.073 1.016 0.931 0 1.756-0.6 2.015-1.457 0.628zm22.712-7.819c-0.62-2.613-1.4-6.55-1.75-8.75-0.342-2.2-1.538-6.621-2.656-9.825-2.137-6.125-2.022-9.108 0.134-3.457 0.688 1.805 1.874 4.7 2.632 6.433 0.76 1.733 1.38 4.478 1.38 6.101 0 1.622 0.42 4.254 0.92 5.849 1.65 5.2 2.14 8.399 1.29 8.399-0.45 0-1.33-2.138-1.95-4.75zm8.45 3.074c-0.37-0.593-1.32-3.721-2.11-6.951-3.17-12.937-4.8-18.05-7.08-22.117-1.304-2.341-1.967-4.256-1.47-4.256 0.74 0 4.02 5.113 4.5 7 0.07 0.275 0.65 1.767 1.29 3.315s1.16 3.229 1.16 3.735 1.14 4.835 2.53 9.62c2.32 8.018 2.85 12.365 1.18 9.654zm-30.51-3.824c-0.02-1.65 0.187-2.446 0.461-1.769s0.29 2.027 0.037 3c-0.254 0.973-0.478 0.419-0.498-1.231zm30.72-15.749c-1.33-3.988-3.89-9.388-5.68-12-1.8-2.613-2.92-4.75-2.5-4.749s2.22 2.138 3.99 4.75c3.27 4.799 8.81 19.248 7.38 19.248-0.42 0-1.86-3.262-3.19-7.249zm102.58 26.584l3-2.593-3.75 2.095c-2.06 1.156-3.75 1.61-3.75 1.012 0-0.595-0.83-0.864-1.85-0.597-1.02 0.268-2.6 0.073-3.5-0.433-0.91-0.505-1.65-0.686-1.65-0.401 0 0.823 5.35 3.501 7 3.506 0.83 0.002 2.85-1.163 4.5-2.589zm-13.5-2.728c0-0.216-0.69-0.661-1.55-0.989-0.89-0.341-1.29-0.174-0.94 0.393 0.59 0.95 2.49 1.406 2.49 0.596zm19.65-2.36c0.18-1.18 0-2.347-0.41-2.593-0.4-0.245-7.04-0.705-14.74-1.021-11.25-0.462-13.51-0.341-11.5 0.619 1.38 0.656 2.82 1.651 3.21 2.211s4.44 1.103 9 1.206l8.29 0.189-7.4-0.918c-9.15-1.133-11-2.46-2.2-1.58 3.52 0.352 8.18 0.64 10.37 0.64 3.51 0 3.91 0.236 3.43 2.057-0.32 1.228-0.1 1.912 0.54 1.697 0.6-0.198 1.23-1.326 1.41-2.507zm5.85 1.764c0.35-0.567-0.05-0.734-0.94-0.393-1.74 0.665-2.05 1.382-0.61 1.382 0.51 0 1.21-0.445 1.55-0.989zm-2.31-4.694c-0.72-0.289-1.58-0.254-1.91 0.079-0.34 0.332 0.25 0.568 1.31 0.525 1.16-0.048 1.4-0.285 0.6-0.604zm19.81-4.888c0-0.275-0.9-0.018-2 0.571-1.93 1.076-2.67 2.211 0 1 1.1-0.589 2-1.296 2-1.571zm-65-1.894c0-0.256-1.01-0.955-2.25-1.555-2.16-1.047-2.17-1.029-0.3 0.465 2.04 1.634 2.55 1.855 2.55 1.09zm79.19-10.218c-0.72-0.289-1.58-0.254-1.91 0.079-0.34 0.332 0.25 0.568 1.31 0.525 1.16-0.048 1.4-0.285 0.6-0.604zm-120.69-1.317c-0.33-0.55-1.15-0.993-1.8-0.985-0.72 0.009-0.6 0.402 0.3 0.985 1.93 1.241 2.27 1.241 1.5 0zm36.22-4.224c3.01-1.536 4.94-2.553 6.16-3.394 1.9-1.297 6.27-2.176 6.27-3.895 0-1.581-4.34-2.455-6.57-4.019-1.87-1.318-5.18-3.126-11.02-6.2578-7.4-3.9657-14.1-7.2103-14.88-7.2103-0.87-0.00004-1.59 0.3245-2.13 0.8953-1.59 1.2436-3.2 1.8101-4.83 2.9574-0.98 0.1305-2.35 0.7044-4.2 1.6918-2.67 1.418-6.17 3.2575-7.77 4.0876l-2.92 1.51 9.34 5.737c5.13 3.156 10.01 6.07 10.83 6.477 0.83 0.406 3.53 1.837 6 3.181 2.48 1.343 5.16 2.447 5.97 2.452 0.8 0.006 5.19-1.89 9.75-4.213zm83.08 3.37c1.04-0.66 1-1.07-0.2-2.071-1.22-1.005-1.91-0.97-3.55 0.178-3.13 2.196 0.43 3.998 3.75 1.893zm-125.8-2.539c0-0.216-0.69-0.661-1.55-0.989-0.89-0.341-1.29-0.174-0.94 0.393 0.59 0.95 2.49 1.406 2.49 0.596zm122.38-1.091c2.12-1.603 1.55-4.516-0.88-4.516-1.26 0-3.88 1.295-7.35 3.631-0.19 0.13-0.05 0.716 0.31 1.302 0.94 1.515 5.7 1.264 7.92-0.417zm-6.63-3.509c5.06-2.442 5.45-3.02 3.68-5.438-1.24-1.699-1.59-1.747-3.16-0.439-0.97 0.808-3.42 2.32-5.45 3.36-3.29 1.694-3.5 2.023-2 3.168 2.19 1.665 2.13 1.671 6.93-0.651zm-177.53-2.82c2.428-1.413 4.326-3.976 3.531-4.77-0.163-0.163-2.266 1.026-4.674 2.643-2.716 1.824-5.743 2.967-7.977 3.01-2.937 0.057-3.231 0.231-1.599 0.941 2.461 1.071 7.099 0.282 10.719-1.824zm176.41-3.86c2.16-1.416 2.3-1.827 1.07-3.061s-2.11-1.07-6.5 1.226c-6.47 3.386-7.91 5.009-5.58 6.313 1.71 0.959 4.34-0.112 11.01-4.478zm-181.31 1.548c6.014-3.098 9.471-8.5366 7.621-11.993-0.87-1.6262-1.913-1.9317-5.745-1.6843-6.988-0.6156-12.574 6.0977-12.192 8.9993 0 1.588 0.562 3.526 1.25 4.307 1.515 1.721 6.082 1.908 9.066 0.371zm169.15-1.835c0.97-1.079 2.06-1.92 2.4-1.87 1.14 0.164 7.13-2.593 7.13-3.2824 0-0.3705-0.68-0.9348-1.51-1.2539-1.69-0.6479-6.49 1.2214-6.49 2.5263 0 0.462-0.78 0.847-1.75 0.855-2.73 0.024-4.6 1.628-3.92 3.384 0.81 2.121 1.99 2.019 4.14-0.359zm-3.62-3.613c3.01-1.5019 4.24-3.4271 2.19-3.4271-0.53 0-2.56 0.7595-4.51 1.6877-2.44 1.1644-3.15 1.9354-2.28 2.4844 0.69 0.439 1.3 0.804 1.35 0.813 0.05 0.008 1.52-0.693 3.25-1.558zm-2.34-3.534c2.46-1.1587 4.25-2.4741 3.98-2.9231-0.39-0.6302-8.05 2.829-10.4 4.699-1.41 1.1211 2.64-0.0008 6.42-1.7759zm-5.8-2.4782l3.79-2.585-4 0.7475c-2.2 0.4112-4.56 0.7495-5.25 0.7517-1.32 0.0045-1.69 1.8914-0.58 3.0042 1.1 1.0976 2.06 0.7914 6.04-1.9184zm16.29 1.5851c0-0.55-0.9-1-2-1s-2 0.45-2 1 0.9 1 2 1 2-0.45 2-1zm-145-11.122c0-0.8256 0.355-0.8279 1.342-0.0086 1.458 1.2097 2.658 0.5447 2.658-1.4727 0-0.8786-1.017-1.1054-3.298-0.7354-1.937 0.3144-4.875-0.124-7.122-1.0628-4.696-1.9624-4.657-1.9625-3.899 0.0132 1.119 2.9151 10.319 5.8274 10.319 3.2663zm7-2.4365c0-0.8575-0.45-1.2809-1-0.941-1.294 0.7997-1.294 2.5 0 2.5 0.55 0 1-0.7016 1-1.559zm52.995-5.6859c0-0.444-1.35-0.108-3 0.745-3.85 1.9956-3.85 2.6505 0 1.194 1.65-0.623 3-1.496 3-1.939zm-38-3.755c0-1.1-0.45-2-1-2s-1 0.9-1 2 0.45 2 1 2 1-0.9 1-2zm5 0c0-1.111-0.66-2-1.5-2-0.83 0-1.5 0.889-1.5 2s0.67 2 1.5 2c0.84 0 1.5-0.889 1.5-2zm3 0c0-1.1-0.45-2-1-2s-1 0.9-1 2 0.45 2 1 2 1-0.9 1-2zm5-1c0-1.1-0.45-2-1-2s-1 0.9-1 2 0.45 2 1 2 1-0.9 1-2zm-17.33-2.25c-0.28-0.688-0.51-0.125-0.51 1.25s0.23 1.937 0.51 1.25c0.27-0.688 0.27-1.813 0-2.5zm19.94-0.479c-0.33-0.333-0.57 0.258-0.53 1.312 0.05 1.165 0.29 1.402 0.61 0.604 0.29-0.722 0.25-1.584-0.08-1.916zm-23.51-2.577c-0.79-0.792-1.1-0.533-1.1 0.939 0 2.644 1.4 4.047 1.85 1.85 0.19-0.932-0.15-2.188-0.75-2.789zm-17.956 1.339c3.069-2.556 1.8-2.576-2.365-0.037-1.95 1.189-2.611 1.998-1.635 2 0.902 0.002 2.702-0.881 4-1.963z"/>
    </g>
  </g>
  <metadata>
    <rdf:RDF>
      <cc:Work>
        <dc:format>image/svg+xml</dc:format>
        <dc:type rdf:resource="http://purl.org/dc/dcmitype/StillImage"/>
        <cc:license rdf:resource="http://creativecommons.org/licenses/publicdomain/"/>
        <dc:publisher>
          <cc:Agent rdf:about="http://openclipart.org/">
            <dc:title>Openclipart</dc:title>
          </cc:Agent>
        </dc:publisher>
        <dc:title>camera</dc:title>
        <dc:date>2007-04-20T13:07:21</dc:date>
        <dc:description>A traced and coloured lineart drawing form US Patent No 6778777</dc:description>
        <dc:source>http://openclipart.org/detail/4024/camera-by-tom</dc:source>
        <dc:creator>
          <cc:Agent>
            <dc:title>tom</dc:title>
          </cc:Agent>
        </dc:creator>
        <dc:subject>
          <rdf:Bag>
            <rdf:li>camera</rdf:li>
            <rdf:li>clip art</rdf:li>
            <rdf:li>clipart</rdf:li>
            <rdf:li>colour lineart</rdf:li>
            <rdf:li>digital</rdf:li>
            <rdf:li>externalsource</rdf:li>
            <rdf:li>film</rdf:li>
            <rdf:li>greyscale</rdf:li>
            <rdf:li>image</rdf:li>
            <rdf:li>media</rdf:li>
            <rdf:li>patent</rdf:li>
            <rdf:li>png</rdf:li>
            <rdf:li>public domain</rdf:li>
            <rdf:li>slr</rdf:li>
            <rdf:li>svg</rdf:li>
            <rdf:li>uspto</rdf:li>
          </rdf:Bag>
        </dc:subject>
      </cc:Work>
      <cc:License rdf:about="http://creativecommons.org/licenses/publicdomain/">
        <cc:permits rdf:resource="http://creativecommons.org/ns#Reproduction"/>
        <cc:permits rdf:resource="http://creativecommons.org/ns#Distribution"/>
        <cc:permits rdf:resource="http://creativecommons.org/ns#DerivativeWorks"/>
      </cc:License>
    </rdf:RDF>
  </metadata>
</svg>
